<?xml version="1.0" standalone="no"?>
<!DOCTYPE svg PUBLIC "-//W3C//DTD SVG 20010904//EN"
 "http://www.w3.org/TR/2001/REC-SVG-20010904/DTD/svg10.dtd">
<svg version="1.0" xmlns="http://www.w3.org/2000/svg"
 width="800.000000pt" height="800.000000pt" viewBox="0 0 800.000000 800.000000"
 preserveAspectRatio="xMidYMid meet">
<metadata>
Created by potrace 1.14, written by Peter Selinger 2001-2017
</metadata>
<g transform="translate(0.000000,800.000000) scale(0.100000,-0.100000)"
fill="#000000" stroke="none">
<path d="M4898 7993 c7 -3 16 -2 19 1 4 3 -2 6 -13 5 -11 0 -14 -3 -6 -6z"/>
<path d="M3050 7979 c0 -4 11 -6 25 -6 13 0 22 3 20 8 -6 9 -45 8 -45 -2z"/>
<path d="M4995 7980 c3 -5 11 -10 16 -10 6 0 7 5 4 10 -3 6 -11 10 -16 10 -6
0 -7 -4 -4 -10z"/>
<path d="M2976 7962 c-2 -4 4 -9 15 -9 10 -1 19 2 19 8 0 11 -27 12 -34 1z"/>
<path d="M5074 7963 c10 -11 37 -12 30 -2 -3 5 -12 9 -21 9 -9 0 -13 -3 -9 -7z"/>
<path d="M2905 7940 c-3 -5 1 -10 9 -10 9 0 16 5 16 10 0 6 -4 10 -9 10 -6 0
-13 -4 -16 -10z"/>
<path d="M5140 7941 c0 -6 9 -9 20 -8 11 1 20 5 20 9 0 4 -9 8 -20 8 -11 0
-20 -4 -20 -9z"/>
<path d="M5230 7920 c0 -5 5 -10 11 -10 5 0 7 5 4 10 -3 6 -8 10 -11 10 -2 0
-4 -4 -4 -10z"/>
<path d="M2765 7900 c-3 -5 -1 -10 4 -10 6 0 11 5 11 10 0 6 -2 10 -4 10 -3 0
-8 -4 -11 -10z"/>
<path d="M5290 7900 c0 -5 5 -10 11 -10 5 0 7 5 4 10 -3 6 -8 10 -11 10 -2 0
-4 -4 -4 -10z"/>
<path d="M2701 7881 c-8 -5 -9 -11 -3 -15 5 -3 12 1 16 9 6 17 6 18 -13 6z"/>
<path d="M5363 7883 c-7 -2 -13 -9 -13 -15 0 -7 5 -7 13 1 8 6 18 7 22 3 5 -4
5 -1 1 6 -4 6 -8 12 -9 11 -1 0 -8 -3 -14 -6z"/>
<path d="M2607 7843 c-4 -3 -7 -11 -7 -17 0 -6 5 -5 12 2 6 6 9 14 7 17 -3 3
-9 2 -12 -2z"/>
<path d="M5456 7841 c-4 -7 -5 -15 -2 -18 9 -9 19 4 14 18 -4 11 -6 11 -12 0z"/>
<path d="M2535 7810 c3 -5 8 -10 11 -10 2 0 4 5 4 10 0 6 -5 10 -11 10 -5 0
-7 -4 -4 -10z"/>
<path d="M5510 7816 c0 -2 7 -6 15 -10 8 -3 15 -1 15 4 0 6 -7 10 -15 10 -8 0
-15 -2 -15 -4z"/>
<path d="M2501 7803 c-1 -7 -9 -10 -18 -7 -16 5 -16 4 0 -6 21 -13 32 -8 24
12 -4 9 -6 9 -6 1z"/>
<path d="M3790 7792 c-17 -8 -30 -22 -30 -33 0 -11 -4 -19 -9 -19 -11 0 -8
-66 4 -94 6 -14 5 -17 -4 -12 -8 5 -11 -6 -10 -44 2 -32 -3 -55 -10 -59 -8 -5
-11 -30 -9 -71 2 -44 -1 -65 -10 -68 -6 -2 -12 -10 -12 -18 0 -9 -4 -12 -10
-9 -5 3 -10 0 -10 -7 0 -16 -38 -18 -60 -3 -14 9 -19 11 -39 14 -5 0 -7 15 -6
31 2 19 -2 30 -10 30 -8 0 -12 11 -10 30 2 20 -2 30 -11 30 -8 0 -13 8 -12 18
2 32 -2 53 -10 48 -5 -3 -9 9 -10 27 0 17 -6 33 -11 35 -6 2 -11 17 -11 33 0
16 -4 29 -10 29 -5 0 -10 9 -10 20 0 11 -4 20 -10 20 -5 0 -10 9 -10 20 0 11
-7 20 -15 21 -78 5 -80 4 -83 -29 -2 -18 -9 -32 -15 -32 -9 0 -12 -47 -12
-177 1 -134 4 -177 13 -175 18 3 14 -15 -4 -22 -9 -4 -14 -9 -11 -13 4 -3 -8
-17 -26 -30 -17 -13 -33 -19 -35 -13 -2 5 -9 10 -16 10 -23 0 -86 75 -86 103
0 17 -5 27 -15 27 -9 0 -12 6 -8 16 3 9 2 19 -3 23 -14 9 -34 49 -34 66 0 8
-4 15 -10 15 -5 0 -12 11 -16 25 -3 14 -10 25 -16 25 -5 0 -7 4 -3 9 3 5 0 15
-7 23 -7 7 -14 19 -16 27 -4 21 -30 43 -37 31 -3 -5 -17 -10 -30 -10 -16 0
-28 -9 -39 -32 -18 -34 -22 -118 -6 -118 6 0 10 -30 10 -69 0 -39 5 -73 10
-76 6 -3 10 -44 10 -91 0 -65 -4 -89 -16 -101 -20 -20 -64 -24 -64 -6 0 7 -11
13 -26 13 -14 0 -23 4 -20 9 3 5 -1 12 -10 15 -8 3 -13 10 -10 14 3 5 -6 20
-20 33 -13 12 -22 29 -20 36 3 7 -1 13 -9 13 -8 0 -15 7 -15 15 0 8 -4 15 -10
15 -5 0 -10 9 -10 21 0 11 -4 17 -10 14 -5 -3 -10 3 -10 15 0 23 -24 53 -34
43 -3 -4 -6 4 -6 16 0 12 -16 37 -35 56 -34 35 -55 44 -55 25 0 -5 -9 -10 -21
-10 -11 0 -17 -4 -14 -10 3 -5 -1 -10 -9 -10 -9 0 -16 -9 -16 -20 0 -11 7 -20
15 -20 8 0 15 -4 15 -10 0 -5 -7 -10 -15 -10 -17 0 -22 -59 -5 -61 6 -1 15 -3
20 -4 6 -1 13 -3 18 -4 4 -1 -1 -8 -11 -15 -18 -14 -18 -44 -1 -68 6 -7 10
-26 9 -41 -1 -16 3 -31 9 -33 7 -3 12 -17 11 -32 0 -16 10 -36 24 -49 23 -22
23 -23 7 -58 -9 -19 -21 -35 -27 -35 -6 0 -7 -4 -4 -10 3 -5 -13 -9 -39 -8
-29 0 -47 6 -50 15 -3 8 -10 11 -16 8 -15 -9 -40 20 -40 46 0 12 -3 20 -6 16
-7 -7 -34 17 -34 30 0 5 -9 15 -20 23 -11 8 -20 21 -20 30 0 8 -16 26 -34 40
-18 14 -32 29 -30 35 3 6 -9 24 -26 40 -37 35 -87 41 -108 13 -16 -22 -18
-116 -3 -131 6 -6 11 -24 11 -40 0 -16 4 -26 10 -22 6 3 10 -5 10 -19 0 -19 4
-24 20 -21 22 4 29 -20 8 -28 -10 -3 -10 -9 0 -26 6 -11 12 -32 12 -46 0 -26
15 -34 23 -12 2 6 8 9 12 5 4 -4 3 -13 -2 -20 -6 -7 -10 -35 -10 -61 -1 -26
-4 -51 -8 -55 -13 -13 -80 -9 -98 6 -9 8 -20 13 -23 10 -7 -8 -62 45 -57 55 2
4 -3 7 -12 7 -9 0 -13 5 -10 10 3 6 1 10 -5 10 -14 0 -140 126 -140 140 0 6
-4 9 -9 6 -5 -3 -11 1 -14 8 -11 29 -77 2 -85 -34 -2 -8 -8 -16 -13 -18 -14
-5 -11 -28 5 -42 8 -6 12 -18 9 -26 -3 -8 1 -14 9 -14 7 0 14 -10 15 -22 1
-11 7 -24 14 -28 6 -4 9 -12 5 -18 -3 -5 1 -13 10 -16 9 -3 14 -13 11 -20 -3
-8 1 -17 9 -20 8 -3 14 1 14 10 0 8 5 12 11 9 7 -5 5 -13 -5 -24 -10 -11 -12
-21 -6 -31 8 -13 12 -12 24 5 14 18 15 18 16 3 0 -10 -4 -18 -10 -18 -5 0 -10
-9 -10 -20 0 -22 16 -27 23 -7 2 7 8 8 13 3 5 -5 4 -11 -3 -13 -15 -5 -17 -43
-3 -43 6 0 10 -22 10 -48 0 -69 -33 -94 -88 -64 -12 7 -22 10 -22 7 0 -4 -15
10 -34 29 -18 20 -39 36 -46 36 -6 0 -25 14 -40 30 -15 17 -33 30 -39 30 -6 0
-32 20 -58 45 -25 25 -49 43 -51 40 -3 -2 -14 2 -25 10 -19 13 -23 12 -49 -15
-36 -38 -40 -107 -8 -130 11 -8 20 -22 20 -31 0 -24 23 -39 51 -32 22 5 23 4
6 -9 -16 -12 -17 -18 -6 -41 7 -15 19 -27 26 -27 8 0 11 5 8 10 -3 6 -2 10 3
10 18 0 21 -13 6 -27 -13 -13 -10 -19 21 -50 19 -19 35 -44 35 -54 0 -11 5
-28 12 -39 10 -15 9 -22 -6 -39 -10 -11 -23 -18 -27 -15 -5 3 -12 -2 -15 -10
-8 -20 -24 -21 -24 -2 0 8 -9 12 -26 10 -17 -1 -35 6 -49 20 -12 12 -30 21
-39 20 -9 -1 -16 4 -16 12 0 8 -7 14 -15 14 -9 0 -25 9 -37 20 -12 11 -28 20
-35 20 -7 0 -13 5 -13 10 0 6 -8 10 -19 10 -10 0 -24 7 -31 15 -17 21 -69 45
-97 45 -16 0 -23 -6 -23 -20 0 -11 -4 -20 -10 -20 -5 0 -10 -25 -10 -56 0 -34
4 -53 10 -49 6 3 10 -1 10 -10 0 -9 3 -14 8 -12 12 6 98 -91 96 -108 -1 -8 2
-15 6 -15 5 0 29 -21 54 -47 32 -32 46 -55 46 -74 0 -15 6 -30 13 -33 9 -3 7
-8 -5 -16 -9 -6 -15 -17 -12 -25 5 -12 -4 -15 -45 -15 -28 0 -51 5 -51 10 0 6
-8 10 -19 10 -10 0 -24 7 -31 15 -7 9 -19 14 -26 11 -7 -3 -15 2 -18 9 -3 8
-14 12 -26 10 -12 -2 -23 2 -27 10 -3 8 -9 12 -15 9 -5 -3 -17 1 -27 10 -10 9
-25 16 -32 14 -8 -2 -13 3 -11 10 1 7 -8 12 -23 12 -14 0 -25 4 -25 10 0 5
-16 9 -36 8 -44 -2 -84 -37 -84 -74 0 -32 48 -83 60 -63 5 7 12 10 17 6 4 -5
1 -12 -6 -16 -10 -7 -3 -20 32 -55 26 -25 51 -46 56 -46 5 0 13 -9 16 -20 3
-11 13 -20 21 -20 8 0 13 -3 11 -7 -6 -11 25 -38 43 -38 8 0 16 -10 18 -23 2
-12 8 -20 13 -17 5 4 9 -14 9 -39 0 -39 -3 -46 -20 -46 -11 0 -20 -4 -20 -9 0
-16 -39 -19 -57 -5 -10 7 -30 14 -45 14 -16 0 -28 5 -28 10 0 6 -13 10 -30 10
-16 0 -30 5 -30 10 0 6 -13 10 -29 10 -16 0 -31 5 -33 10 -2 6 -14 12 -28 12
-14 1 -27 5 -30 9 -5 7 -53 12 -102 10 -21 -1 -28 -6 -28 -21 0 -11 -4 -20
-10 -20 -5 0 -10 -4 -10 -10 0 -5 8 -10 17 -10 15 0 15 -1 -1 -13 -18 -13 -15
-17 30 -63 27 -27 55 -49 62 -50 7 -2 22 -12 32 -24 10 -11 22 -19 27 -18 6 2
24 -12 40 -29 17 -18 36 -33 42 -33 15 0 61 -46 61 -61 0 -6 12 -22 28 -35
l27 -24 -27 0 c-19 0 -28 -5 -28 -16 0 -10 -6 -14 -14 -11 -8 3 -20 -1 -26 -8
-10 -12 -16 -12 -39 -1 -14 7 -43 12 -63 11 -22 -1 -39 3 -42 10 -2 7 -24 13
-52 13 -26 1 -52 6 -58 12 -5 5 -29 10 -53 10 -24 0 -43 5 -43 10 0 6 -12 10
-26 10 -14 0 -23 -3 -21 -7 5 -10 -30 -43 -37 -36 -3 4 -6 -12 -6 -34 0 -34 6
-46 34 -71 19 -17 32 -33 29 -36 -4 -3 6 -6 20 -6 15 0 27 -4 27 -10 0 -5 9
-10 20 -10 11 0 20 -4 20 -10 0 -5 9 -10 20 -10 11 0 20 -4 20 -10 0 -5 9 -10
19 -10 10 0 22 -7 25 -16 3 -8 11 -12 17 -9 12 8 51 -24 44 -36 -3 -4 6 -6 20
-3 18 3 25 0 25 -11 0 -8 5 -15 10 -15 6 0 10 5 10 10 0 6 5 10 12 10 9 0 9
-3 0 -12 -14 -14 -16 -68 -2 -68 6 0 10 -4 10 -10 0 -5 -9 -10 -20 -10 -11 0
-20 -4 -20 -10 0 -6 -54 -10 -141 -10 -84 0 -138 4 -134 9 7 13 -26 17 -103
13 -53 -3 -62 -6 -62 -23 0 -10 -4 -19 -10 -19 -14 0 -12 -37 3 -43 9 -4 9 -8
-2 -15 -12 -9 -11 -13 4 -29 10 -10 22 -18 27 -18 5 0 13 -6 17 -14 5 -7 14
-10 20 -7 6 4 18 0 27 -8 9 -9 19 -14 24 -11 4 3 11 -2 14 -11 3 -8 11 -14 18
-12 19 3 88 -24 88 -35 0 -5 9 -7 20 -4 11 3 27 -1 34 -9 8 -8 20 -14 26 -14
15 0 64 -50 67 -69 1 -8 -10 -29 -25 -45 l-27 -31 -180 0 c-133 0 -183 -3
-193 -12 -8 -7 -18 -11 -23 -8 -8 6 -13 -8 -10 -27 0 -5 -3 -8 -8 -8 -15 0
-20 -41 -6 -46 7 -3 12 -14 10 -25 -3 -14 2 -19 20 -19 13 0 25 -5 27 -11 2
-6 16 -11 31 -11 15 0 27 -4 27 -9 0 -5 13 -9 29 -9 16 0 31 -6 33 -12 3 -8
19 -12 41 -10 25 3 39 -1 42 -11 4 -9 18 -13 40 -12 20 2 39 -3 46 -11 6 -8
15 -12 19 -9 3 2 23 -13 43 -33 l37 -37 -23 -25 c-36 -40 -63 -50 -137 -50
-48 0 -69 -4 -67 -12 1 -8 -20 -11 -70 -10 -40 0 -73 -4 -73 -9 0 -5 -12 -9
-26 -9 -25 0 -76 -42 -82 -68 -1 -7 3 -23 10 -35 7 -12 12 -26 13 -32 0 -5 15
-11 33 -13 17 -2 32 -7 32 -13 0 -5 32 -9 70 -9 40 0 70 -4 70 -10 0 -6 28
-10 65 -10 37 0 65 -4 65 -10 0 -5 11 -10 25 -10 36 0 81 -48 77 -83 -2 -15
-8 -25 -13 -22 -5 4 -9 -1 -9 -9 0 -9 -7 -13 -19 -11 -11 2 -22 -3 -25 -12 -5
-11 -16 -14 -41 -11 -23 3 -36 -1 -40 -10 -3 -10 -16 -13 -40 -10 -19 2 -36 0
-38 -5 -1 -5 -16 -11 -32 -13 -16 -1 -31 -8 -33 -13 -2 -6 -21 -11 -43 -11
-21 0 -39 -4 -39 -9 0 -5 -10 -11 -22 -13 -13 -2 -22 -9 -21 -15 1 -6 -4 -17
-12 -23 -22 -18 -18 -29 13 -41 25 -10 26 -12 10 -23 -24 -17 -23 -26 2 -21
12 2 23 -1 26 -8 3 -9 48 -12 169 -12 134 0 165 -2 165 -13 0 -9 7 -12 20 -9
11 3 27 -1 34 -9 8 -8 18 -14 23 -14 4 0 9 -18 9 -40 1 -27 -3 -40 -12 -40 -8
0 -14 -4 -14 -10 0 -5 -11 -10 -24 -10 -14 0 -28 -5 -31 -10 -3 -5 -15 -10
-26 -10 -10 0 -19 -4 -19 -10 0 -5 -12 -10 -26 -10 -14 0 -32 -7 -41 -15 -8
-8 -19 -13 -24 -9 -5 3 -12 -1 -15 -9 -3 -9 -16 -13 -35 -12 -20 2 -29 -2 -29
-12 0 -8 -4 -12 -9 -8 -5 3 -16 -2 -25 -11 -9 -8 -20 -13 -24 -10 -9 6 -35
-21 -45 -47 -4 -11 -1 -17 8 -17 8 0 15 -4 15 -10 0 -5 -4 -10 -10 -10 -5 0
-10 -9 -10 -20 0 -13 7 -20 19 -20 11 0 21 -5 23 -11 5 -15 198 -15 207 -1 3
6 51 10 109 10 82 0 102 -3 102 -15 0 -8 4 -11 10 -8 6 4 10 -10 10 -35 0 -27
-5 -43 -15 -46 -8 -4 -12 -10 -9 -15 3 -5 -2 -9 -10 -9 -9 0 -16 -4 -16 -10 0
-5 -9 -10 -20 -10 -11 0 -20 -4 -20 -10 0 -5 -9 -10 -20 -10 -11 0 -20 -4 -20
-10 0 -5 -8 -10 -18 -10 -10 0 -24 -9 -32 -20 -8 -11 -22 -20 -32 -20 -10 0
-18 -4 -18 -10 0 -5 -9 -10 -20 -10 -11 0 -20 -4 -20 -8 0 -5 -15 -14 -34 -22
-22 -8 -32 -18 -29 -27 3 -8 0 -13 -7 -11 -7 2 -14 -7 -16 -19 -3 -15 1 -23
11 -23 8 0 15 -4 15 -10 0 -5 -7 -10 -15 -10 -13 0 -13 -3 -3 -20 7 -11 18
-20 25 -20 7 0 13 -4 13 -8 0 -5 14 -9 30 -10 17 0 30 5 30 11 0 8 16 11 47
10 26 -1 50 3 54 8 3 6 29 11 57 12 28 0 49 4 46 9 -3 4 5 8 18 9 118 5 120 4
139 -20 19 -24 20 -24 34 -5 13 17 14 17 15 2 0 -10 -4 -18 -10 -18 -5 0 -10
-13 -10 -28 0 -31 -16 -52 -38 -52 -8 0 -22 -9 -31 -19 -10 -11 -24 -21 -32
-23 -8 -2 -26 -16 -41 -33 -15 -16 -34 -30 -42 -30 -9 0 -15 -3 -13 -7 3 -9
-35 -37 -51 -38 -7 0 -28 -16 -47 -35 -42 -41 -47 -87 -14 -116 12 -10 25 -16
29 -14 4 3 11 -3 15 -13 6 -16 7 -16 16 0 6 11 19 15 39 13 17 -2 36 2 44 11
8 7 26 14 40 14 14 0 28 5 31 10 3 6 17 10 31 10 13 0 24 4 24 8 0 4 12 9 27
10 15 1 32 7 37 12 6 6 34 10 64 10 54 0 82 -15 82 -42 0 -8 5 -19 11 -25 7
-7 -1 -19 -26 -42 -20 -17 -33 -31 -31 -31 3 0 -6 -11 -20 -25 -14 -14 -29
-25 -34 -25 -6 0 -10 -4 -10 -10 0 -5 -6 -10 -12 -10 -18 -1 -68 -46 -68 -61
0 -7 -3 -10 -6 -6 -8 8 -54 -38 -54 -54 0 -7 -3 -10 -6 -6 -4 3 -13 0 -20 -8
-18 -18 -18 -82 0 -101 17 -16 106 -20 106 -4 0 6 11 10 25 10 26 0 56 13 88
39 9 8 17 10 17 6 0 -4 9 0 19 9 11 10 24 15 29 12 6 -3 13 1 16 10 3 8 10 13
15 10 5 -3 14 1 20 8 7 8 23 13 36 11 14 -1 25 1 25 5 0 17 32 18 60 2 27 -15
30 -22 30 -65 0 -30 -4 -46 -10 -42 -6 3 -10 0 -10 -8 0 -8 -7 -18 -16 -21 -8
-3 -13 -10 -10 -14 6 -10 -151 -172 -159 -164 -3 3 -5 -4 -5 -16 0 -11 -4 -24
-10 -27 -14 -9 -12 -101 3 -113 21 -17 83 -19 72 -2 -3 6 1 10 9 10 9 0 31 9
51 20 20 11 40 20 46 20 15 0 39 26 32 34 -4 3 5 6 18 6 13 0 30 9 37 20 7 11
21 20 32 20 11 0 20 4 20 10 0 5 11 12 25 16 14 3 25 9 25 13 0 4 15 7 33 7
43 -1 71 -27 65 -60 -4 -18 -1 -26 8 -26 20 0 17 -13 -6 -30 -11 -8 -20 -21
-20 -30 0 -8 -11 -24 -25 -34 -14 -10 -25 -27 -25 -36 0 -10 -13 -28 -30 -41
-16 -13 -30 -31 -30 -39 0 -9 -9 -22 -20 -30 -11 -8 -20 -22 -20 -32 0 -10 -4
-18 -10 -18 -5 0 -10 -9 -10 -19 0 -11 -6 -22 -12 -25 -10 -5 -10 -7 0 -12 6
-3 12 -14 12 -25 0 -10 5 -19 10 -19 6 0 10 -6 10 -14 0 -11 9 -13 32 -10 18
2 34 8 36 13 2 5 12 7 23 4 11 -3 19 -1 17 5 -3 11 48 62 64 62 5 0 23 14 38
30 15 17 34 30 42 30 7 0 20 9 28 20 8 11 20 20 28 20 7 0 10 5 7 10 -3 6 3
10 15 10 11 0 23 6 26 13 6 18 84 18 84 0 0 -7 5 -13 10 -13 6 0 10 -22 10
-50 0 -27 -4 -50 -10 -50 -5 0 -10 -9 -10 -20 0 -11 -4 -20 -10 -20 -5 0 -10
-8 -10 -19 0 -10 -7 -24 -15 -31 -8 -7 -13 -16 -10 -20 3 -4 -2 -13 -10 -20
-7 -6 -12 -17 -9 -24 3 -8 -2 -16 -11 -20 -9 -3 -13 -10 -10 -16 3 -6 -1 -13
-9 -16 -9 -3 -14 -10 -11 -14 3 -4 -1 -10 -9 -13 -9 -4 -13 -17 -11 -34 3 -33
-4 -55 -16 -47 -19 12 -8 -10 18 -35 27 -25 73 -38 73 -20 0 5 7 9 16 9 9 0
32 16 51 35 19 19 40 35 46 35 6 0 7 3 4 6 -7 7 61 74 76 74 4 0 6 4 3 8 -3 5
6 15 19 22 13 7 22 17 19 22 -3 4 2 8 10 8 9 0 16 7 16 16 0 8 4 13 9 10 5 -4
11 -1 13 6 7 20 65 18 83 -2 21 -24 27 -136 8 -152 -7 -6 -13 -19 -13 -30 0
-10 -4 -16 -10 -13 -6 4 -10 -8 -10 -30 0 -22 -4 -34 -10 -30 -6 4 -10 -5 -10
-19 0 -14 -4 -26 -10 -26 -5 0 -10 -13 -10 -30 0 -16 -4 -30 -10 -30 -5 0 -10
-6 -10 -14 0 -8 -7 -21 -15 -30 -13 -13 -13 -16 0 -30 8 -8 15 -23 15 -33 0
-16 7 -19 45 -18 37 0 51 7 85 39 22 21 38 41 35 45 -2 4 16 26 40 49 25 23
45 47 45 53 0 7 14 25 30 41 17 15 30 33 30 38 0 6 7 10 16 10 8 0 12 5 9 10
-4 6 5 10 20 10 15 0 24 4 20 10 -3 6 -1 10 4 10 6 0 11 -4 11 -9 0 -5 10 -11
23 -13 12 -2 21 -9 19 -17 -2 -8 3 -18 10 -22 16 -10 18 -30 4 -48 -8 -10 -8
-15 2 -18 18 -7 15 -23 -4 -23 -10 0 -14 -6 -11 -14 3 -8 -1 -20 -9 -27 -14
-11 -13 -14 2 -22 9 -5 12 -12 7 -16 -13 -8 -44 -73 -32 -66 5 4 9 -1 9 -9 0
-8 -5 -18 -10 -21 -6 -4 -8 -11 -5 -16 4 -5 -1 -12 -9 -15 -21 -8 -20 -24 2
-24 16 -1 16 -1 0 -13 -31 -24 -14 -107 22 -107 6 0 9 -4 6 -9 -3 -5 5 -11 19
-13 17 -4 25 -1 25 8 0 8 9 14 20 14 13 0 20 7 20 20 0 11 9 25 20 32 21 13
28 48 10 48 -5 0 -10 5 -10 10 0 7 6 8 17 2 19 -11 43 7 43 32 0 9 5 16 10 16
15 0 12 48 -2 53 -7 2 -10 8 -5 12 4 5 14 0 22 -11 13 -17 14 -17 15 -1 0 9 6
17 13 17 7 0 13 9 14 20 1 11 -4 20 -13 20 -8 0 -14 5 -14 10 0 13 13 13 27
-1 9 -9 18 -4 38 20 22 25 34 31 66 31 32 0 39 -3 39 -20 0 -11 5 -20 10 -20
6 0 10 -9 10 -19 0 -11 6 -22 13 -25 10 -5 10 -7 0 -12 -7 -3 -13 -19 -13 -34
0 -16 -4 -32 -10 -35 -14 -9 -12 -62 3 -69 9 -5 9 -7 0 -12 -7 -3 -13 -19 -13
-34 0 -16 -4 -32 -10 -35 -14 -9 -12 -62 3 -68 10 -3 10 -9 0 -26 -18 -29 -16
-39 12 -66 24 -25 55 -33 55 -16 0 5 10 11 22 13 13 2 29 16 38 33 8 17 17 32
20 35 3 3 5 12 5 20 0 8 6 14 13 12 7 -1 12 8 12 23 0 14 5 25 11 25 7 0 10
12 7 30 -3 20 0 30 9 30 7 0 13 9 13 20 0 11 5 20 10 20 6 0 10 9 10 20 0 11
-4 20 -10 20 -5 0 -10 7 -10 17 0 14 2 14 20 -2 19 -18 20 -17 20 3 0 11 -4
24 -10 27 -5 3 -10 11 -10 17 0 6 8 3 19 -6 17 -15 19 -15 25 -1 3 9 10 14 15
11 5 -3 14 1 21 9 17 21 27 19 54 -10 20 -21 25 -23 30 -10 3 9 10 13 16 10 7
-4 5 -11 -3 -19 -17 -17 -17 -167 0 -187 6 -8 11 -44 12 -82 0 -57 -2 -67 -17
-67 -15 -1 -15 -2 2 -15 18 -14 19 -16 3 -27 -12 -9 -14 -17 -7 -28 9 -13 11
-13 19 0 6 8 13 11 18 6 4 -4 -1 -13 -12 -19 -19 -11 -19 -11 4 -17 45 -10 91
0 91 21 0 10 5 19 10 19 14 0 12 38 -2 43 -8 2 -9 8 -4 13 5 5 11 4 13 -3 3
-7 9 -13 14 -13 14 0 11 58 -3 63 -8 2 -9 8 -4 13 5 5 11 4 13 -3 3 -7 9 -13
14 -13 12 0 12 57 -1 65 -5 3 -10 12 -10 18 1 7 6 5 13 -5 7 -9 18 -13 25 -9
14 8 8 51 -9 62 -7 4 -8 9 -1 13 6 3 13 2 17 -4 12 -19 24 -10 19 14 -2 13 2
29 11 36 8 7 12 16 9 21 -3 5 2 12 10 15 9 3 13 10 10 15 -3 5 4 9 15 9 11 0
24 7 29 15 7 13 13 11 35 -15 15 -16 27 -37 27 -45 0 -8 5 -15 10 -15 6 0 10
5 10 10 0 6 7 10 16 10 15 0 15 -2 1 -23 -10 -15 -14 -48 -14 -102 0 -65 3
-83 18 -96 20 -17 26 -49 10 -49 -6 0 -10 -18 -9 -39 0 -33 4 -40 22 -43 11
-2 19 -7 17 -13 -1 -5 -7 -9 -12 -7 -5 1 -9 -5 -9 -14 0 -8 4 -13 9 -10 5 4
11 1 13 -5 2 -5 16 -12 30 -13 29 -3 78 40 78 69 0 8 5 15 10 15 6 0 10 18 10
40 0 22 -4 40 -10 40 -5 0 -10 5 -10 10 0 6 9 10 20 10 17 0 20 7 20 45 0 25
-4 45 -10 45 -5 0 -10 5 -10 10 0 6 9 10 20 10 17 0 20 7 20 40 0 22 5 40 10
40 6 0 10 7 10 16 0 45 82 67 110 29 30 -40 40 -65 40 -100 0 -24 4 -34 11
-29 7 4 10 -7 9 -32 -3 -66 -1 -74 20 -74 11 0 20 -4 20 -10 0 -5 -4 -10 -10
-10 -5 0 -10 -18 -10 -40 0 -22 5 -40 10 -40 6 0 10 -8 10 -18 0 -9 14 -30 31
-47 27 -25 33 -27 43 -14 6 8 20 14 30 14 23 0 31 34 10 42 -8 3 -11 9 -8 14
3 5 9 7 14 4 5 -3 12 0 17 7 9 16 11 118 2 118 -15 0 -19 34 -5 42 8 5 13 17
11 28 -2 13 2 20 11 20 10 0 14 13 14 53 0 62 18 107 43 107 9 0 17 7 17 15 0
8 5 15 10 15 6 0 10 -7 10 -15 0 -8 8 -15 18 -15 26 0 42 -20 42 -52 0 -28 15
-38 23 -15 4 9 7 9 18 -1 11 -10 10 -12 -4 -12 -21 0 -24 -55 -3 -63 7 -3 13
-16 12 -29 -1 -13 3 -26 8 -30 5 -3 10 -19 10 -34 2 -29 26 -47 26 -19 0 9 5
13 11 10 7 -5 6 -12 -4 -23 -14 -16 -15 -47 -2 -60 3 -4 10 0 15 8 5 8 12 11
17 7 4 -5 1 -12 -7 -17 -18 -11 -22 -40 -4 -40 8 0 14 -4 14 -10 0 -5 23 -10
50 -10 43 0 50 3 50 19 0 11 5 21 11 23 7 2 11 65 11 193 0 179 8 233 30 219
5 -3 11 2 14 10 3 9 11 16 16 16 17 0 88 -76 88 -94 0 -9 5 -16 10 -16 6 0 10
-9 10 -20 0 -22 16 -27 23 -7 2 7 8 8 13 3 5 -5 4 -11 -3 -13 -15 -5 -18 -43
-4 -43 5 0 11 6 14 13 2 7 8 8 13 3 5 -5 4 -11 -3 -13 -15 -5 -17 -43 -3 -43
6 0 10 -9 10 -20 0 -11 5 -20 10 -20 6 0 10 -12 10 -26 0 -14 4 -23 10 -19 6
3 10 -3 10 -15 0 -27 48 -69 78 -70 39 0 72 42 72 94 0 25 -4 48 -10 51 -5 3
-10 19 -10 35 0 15 -6 31 -12 34 -10 5 -10 7 0 12 14 7 17 64 2 64 -5 0 -10 9
-10 21 0 11 -5 30 -11 41 -8 15 -8 22 1 28 7 4 11 24 9 47 -6 76 67 101 122
42 16 -17 26 -35 23 -40 -3 -5 2 -9 11 -9 9 0 14 -4 11 -9 -3 -5 1 -12 10 -15
8 -3 12 -10 9 -16 -3 -5 5 -21 19 -34 14 -13 26 -31 26 -40 0 -9 5 -16 10 -16
6 0 10 5 10 10 0 6 5 10 12 10 9 0 9 -3 0 -12 -16 -16 -15 -36 4 -55 13 -14
17 -14 24 -2 5 7 13 10 17 5 4 -5 2 -11 -4 -13 -29 -10 -2 -63 31 -63 9 0 16
-4 16 -10 0 -5 9 -10 20 -10 11 0 20 5 20 10 0 6 6 10 13 10 7 0 18 9 25 20
10 16 10 20 -1 20 -18 0 -16 42 2 64 11 14 11 16 -2 16 -10 0 -14 6 -11 14 3
7 -2 21 -11 30 -15 14 -15 17 -1 22 9 3 13 10 10 15 -3 5 -10 6 -16 3 -7 -5
-9 0 -5 15 3 14 0 24 -9 28 -12 4 -12 8 -2 20 9 11 9 16 -1 23 -8 4 -11 12 -8
17 6 10 -22 74 -36 84 -9 7 7 41 33 69 8 9 33 18 55 19 32 1 46 -4 65 -24 21
-23 24 -23 36 -7 8 9 14 12 14 5 0 -6 -4 -15 -10 -18 -19 -12 -10 -36 26 -72
28 -28 38 -33 45 -22 4 7 12 10 16 5 4 -5 2 -11 -4 -13 -21 -8 -15 -27 22 -67
26 -28 38 -36 48 -28 8 7 17 7 30 -2 21 -16 22 -26 1 -26 -8 0 -12 5 -9 10 3
6 -1 10 -9 10 -20 0 -20 -6 2 -27 20 -21 72 -23 95 -4 19 15 24 91 7 91 -5 0
-10 13 -10 29 0 16 -5 31 -12 33 -6 2 -11 19 -10 36 0 18 -4 30 -9 27 -5 -4
-9 3 -9 14 0 12 -4 21 -10 21 -5 0 -10 18 -10 41 0 32 -6 45 -26 61 -20 16
-23 23 -12 29 7 5 13 21 13 38 0 55 50 84 89 52 9 -8 16 -10 16 -5 0 4 25 -18
55 -49 31 -31 60 -57 65 -57 6 0 10 -4 10 -9 0 -5 29 -37 65 -72 77 -74 105
-81 154 -39 36 32 37 37 14 63 -9 9 -13 17 -8 17 4 0 2 7 -5 15 -18 21 -60
106 -60 119 0 6 -9 17 -20 24 -11 7 -20 21 -20 32 0 11 -3 20 -7 20 -9 0 -33
48 -33 66 0 7 -6 15 -12 18 -10 5 -10 7 0 12 6 3 12 18 12 32 1 38 20 57 58
57 23 0 40 -7 52 -22 10 -13 26 -23 35 -23 19 0 47 -25 38 -34 -4 -3 1 -6 10
-6 10 0 17 -4 17 -10 0 -5 7 -10 16 -10 8 0 33 -18 54 -40 21 -22 44 -40 50
-40 7 0 20 -10 30 -23 22 -27 78 -31 102 -6 32 32 15 129 -22 129 -7 0 -9 7
-6 16 6 17 -15 44 -34 44 -7 0 -10 7 -7 15 4 8 -8 28 -29 49 -18 18 -34 40
-34 48 0 7 -9 20 -20 28 -12 8 -20 26 -20 42 0 17 -8 33 -20 40 -23 15 -26 28
-7 28 8 0 23 10 35 23 29 30 92 31 107 2 5 -11 19 -22 30 -23 11 -2 23 -9 27
-15 4 -6 10 -8 14 -5 3 4 16 -4 29 -18 12 -13 30 -24 39 -24 9 0 16 -4 16 -8
0 -5 16 -14 35 -22 19 -7 32 -17 29 -22 -3 -4 0 -9 5 -9 21 -3 26 -4 40 -13
21 -14 69 -9 86 8 9 8 15 33 15 56 0 34 -6 48 -30 70 -17 15 -30 33 -30 40 0
6 -4 8 -10 5 -5 -3 -15 7 -22 22 -7 15 -46 61 -87 101 -59 59 -71 76 -60 84
11 7 11 11 2 15 -7 2 -13 11 -13 19 0 9 5 12 10 9 6 -3 10 4 10 17 0 21 4 23
53 23 28 0 59 -5 67 -10 8 -5 17 -10 20 -10 15 -1 70 -29 70 -36 0 -4 9 -6 20
-4 13 2 20 -2 20 -11 0 -9 11 -14 30 -14 17 0 30 -4 30 -10 0 -5 9 -10 19 -10
11 0 23 -5 26 -11 4 -6 13 -8 20 -5 7 2 16 -2 19 -10 6 -16 46 -20 46 -4 0 6
7 10 16 10 9 0 18 9 21 20 3 11 9 20 14 20 5 0 9 7 9 16 0 8 -4 12 -10 9 -6
-4 -10 6 -10 22 -1 31 -20 63 -39 63 -7 0 -9 5 -6 10 3 6 -3 10 -14 10 -21 0
-73 45 -63 54 3 3 0 6 -7 6 -16 0 -62 46 -54 54 4 3 2 6 -4 6 -6 0 -28 17 -48
37 -41 41 -50 90 -22 118 17 17 107 21 107 5 0 -5 13 -10 28 -10 15 0 32 -4
38 -10 5 -5 22 -11 37 -12 15 -1 27 -6 27 -10 0 -4 18 -8 39 -8 26 0 41 -5 45
-15 4 -10 14 -14 31 -11 17 3 28 0 32 -10 7 -20 52 -10 78 19 30 32 30 83 0
113 -13 13 -31 24 -40 24 -8 0 -15 5 -15 10 0 6 -7 10 -16 10 -8 0 -12 5 -9
10 3 6 -3 10 -13 10 -11 0 -33 15 -49 33 -16 19 -37 33 -46 31 -9 -1 -17 4
-17 12 0 8 -7 14 -16 14 -8 0 -12 4 -9 10 3 5 -3 10 -14 10 -12 0 -21 5 -21
10 0 6 -7 10 -16 10 -11 0 -15 6 -11 20 3 13 0 20 -8 20 -17 0 -13 29 6 41 8
5 10 9 4 9 -5 0 0 7 12 15 27 19 117 22 138 5 8 -7 24 -10 34 -7 11 3 28 -1
38 -8 10 -7 38 -13 62 -13 24 -1 47 -5 50 -10 7 -10 75 -9 113 2 31 9 43 42
19 51 -15 6 -14 8 2 19 9 7 17 15 17 18 0 13 -39 48 -54 48 -9 0 -16 5 -16 10
0 6 -8 10 -18 10 -10 0 -24 9 -32 20 -8 11 -22 20 -32 20 -10 0 -18 5 -18 10
0 6 -9 10 -20 10 -11 0 -20 5 -20 10 0 6 -9 10 -20 10 -11 0 -20 5 -20 10 0 6
-11 10 -25 10 -15 0 -25 6 -25 15 0 8 -6 12 -15 9 -8 -4 -25 6 -39 23 -26 28
-34 49 -16 38 6 -4 10 9 10 31 0 31 3 36 20 31 12 -3 20 0 20 7 0 16 122 19
132 3 4 -7 57 -10 142 -10 107 1 139 4 151 16 18 19 20 43 3 51 -10 5 -10 7 0
12 20 9 15 44 -7 44 -10 0 -21 7 -25 15 -3 8 -12 12 -19 9 -8 -3 -17 2 -21 11
-4 10 -12 15 -21 11 -9 -3 -18 0 -21 8 -3 8 -17 12 -35 11 -20 -2 -29 2 -29
12 0 9 -6 13 -15 9 -8 -3 -19 2 -23 11 -6 10 -17 14 -31 10 -14 -3 -24 0 -28
9 -3 8 -14 14 -24 14 -10 0 -19 5 -19 10 0 6 -6 10 -13 8 -12 -3 -77 44 -77
56 0 3 7 6 15 6 8 0 14 3 14 8 -4 23 2 42 12 36 6 -3 14 -1 18 5 5 8 38 12 89
12 53 0 82 4 85 12 3 9 38 12 113 12 104 0 110 1 130 25 23 27 39 64 25 55 -5
-3 -13 4 -16 16 -10 31 -36 58 -50 52 -7 -2 -16 0 -20 6 -3 6 -19 11 -35 11
-16 0 -32 5 -35 10 -3 6 -19 10 -34 10 -16 0 -33 6 -39 13 -6 7 -26 12 -44 11
-18 -1 -35 1 -38 6 -3 4 -16 10 -30 11 -14 2 -28 9 -32 14 -4 6 -12 10 -17 10
-5 0 -23 11 -39 25 l-29 25 38 38 c33 32 46 37 84 37 25 0 45 5 45 10 0 6 28
10 65 10 37 0 65 4 65 10 0 6 27 10 60 10 33 0 60 4 60 10 0 6 7 10 16 10 38
0 69 72 36 85 -8 3 -12 13 -9 24 6 23 -11 32 -73 38 -25 3 -50 9 -56 13 -5 5
-39 9 -74 8 -41 -1 -65 2 -68 10 -2 7 -26 12 -61 12 -45 0 -59 4 -71 20 -8 11
-19 20 -26 20 -19 0 -9 52 14 70 11 10 18 20 15 24 -4 3 -1 7 5 7 7 1 20 2 30
3 9 1 26 6 37 12 11 6 32 10 48 9 15 -1 27 3 27 10 0 6 19 12 43 14 23 1 44 6
45 12 2 5 17 9 33 9 16 0 29 5 29 10 0 6 13 10 28 10 18 0 37 9 50 25 23 27
29 55 12 55 -6 0 -10 6 -9 13 6 48 1 54 -51 52 -30 -1 -50 3 -50 9 0 8 -48 11
-147 11 -144 0 -203 10 -203 36 0 5 -7 9 -15 9 -20 0 -19 16 1 24 9 4 14 9 10
13 -10 10 25 43 46 43 10 0 18 5 18 10 0 6 9 10 20 10 11 0 20 7 20 15 0 9 6
12 15 9 8 -3 21 1 30 9 8 8 24 13 35 10 11 -3 20 0 20 6 0 6 7 11 16 11 8 0
22 6 30 14 8 8 23 13 35 11 11 -2 22 2 25 10 3 7 11 12 18 9 20 -8 66 52 66
86 0 43 -39 80 -84 80 -19 0 -38 -4 -41 -10 -4 -6 -53 -10 -115 -10 -62 0
-111 -4 -115 -10 -8 -12 -85 -13 -85 -1 0 5 -9 11 -20 14 -16 4 -20 14 -20 47
0 22 3 39 8 37 9 -5 62 50 54 57 -3 3 2 6 11 6 10 0 25 4 35 9 9 5 31 15 47
22 17 8 37 22 46 31 9 10 24 18 33 18 9 0 16 5 16 10 0 6 7 10 15 10 9 0 33
11 54 24 36 23 38 27 36 70 -3 67 -15 77 -96 75 -38 -1 -69 -5 -69 -10 0 -5
-23 -9 -50 -9 -32 0 -52 -5 -56 -13 -3 -8 -22 -12 -52 -12 -26 0 -50 -4 -54
-9 -11 -16 -78 -15 -78 1 0 7 -6 10 -13 7 -16 -6 -53 26 -52 46 0 8 10 16 23
18 17 3 21 8 17 23 -4 13 -2 19 9 19 9 0 16 5 16 10 0 6 7 10 16 10 9 0 29 14
44 30 15 17 33 30 40 30 7 0 21 11 32 25 11 14 23 23 28 20 4 -3 19 6 31 20
13 13 29 25 36 25 26 0 63 50 63 85 0 19 -4 35 -10 35 -5 0 -10 9 -10 20 0 14
-7 20 -22 21 -47 2 -83 -3 -89 -13 -4 -6 -14 -8 -22 -5 -8 3 -25 -1 -36 -10
-12 -8 -31 -13 -42 -10 -12 3 -19 0 -19 -9 0 -9 -11 -14 -29 -14 -17 0 -33 -4
-36 -10 -3 -6 -19 -10 -36 -10 -16 0 -29 -5 -29 -12 0 -17 -93 -15 -98 1 -2 6
-12 11 -23 11 -10 0 -19 5 -19 10 0 6 5 10 10 10 6 0 10 14 10 30 0 17 -4 30
-10 30 -5 0 -10 8 -10 18 1 16 1 16 14 -1 13 -16 17 -15 54 23 22 23 48 52 58
66 11 13 23 24 27 24 13 0 37 27 30 34 -10 10 -25 7 -18 -4 3 -5 -1 -10 -9
-10 -21 0 -20 10 2 26 20 16 36 18 27 4 -3 -5 3 -10 15 -10 24 0 90 62 90 84
0 8 5 18 10 21 6 3 10 20 10 36 0 18 -4 28 -10 24 -5 -3 -10 1 -10 9 0 9 -7
16 -15 16 -8 0 -15 5 -15 10 0 13 -47 13 -52 0 -1 -5 -18 -10 -35 -12 -18 -1
-33 -8 -33 -15 0 -7 -9 -10 -20 -8 -11 2 -18 1 -16 -4 5 -7 -63 -37 -76 -33
-5 1 -8 -4 -8 -12 0 -9 -7 -13 -20 -11 -11 2 -20 -2 -20 -8 0 -16 -70 -35
-127 -36 l-43 -1 0 49 c0 28 5 53 10 56 14 9 12 43 -2 47 -16 6 14 38 34 38 8
-1 6 -6 -6 -15 -11 -8 -16 -18 -11 -22 4 -5 10 -2 12 5 3 6 9 10 14 6 5 -3 9
0 9 6 0 12 24 40 34 40 10 0 54 49 48 54 -3 3 0 6 6 6 6 0 18 14 26 32 19 36
20 41 6 33 -15 -9 -12 7 5 29 8 11 18 16 22 12 4 -4 1 -11 -7 -16 -8 -5 -11
-12 -8 -16 9 -9 38 21 38 39 0 9 6 18 13 21 10 5 10 7 0 12 -7 3 -13 14 -13
25 0 10 -4 19 -10 19 -5 0 -10 9 -10 19 0 27 -15 34 -33 16 -9 -8 -25 -15 -37
-15 -12 0 -18 -4 -15 -10 4 -6 -5 -10 -19 -10 -14 0 -26 -4 -26 -10 0 -5 -8
-10 -18 -10 -9 0 -25 -11 -36 -24 -10 -14 -24 -22 -32 -19 -8 3 -14 0 -14 -6
0 -6 -7 -11 -16 -11 -9 0 -25 -11 -36 -25 -11 -14 -23 -23 -28 -20 -5 3 -15
-2 -24 -11 -9 -8 -20 -12 -26 -9 -6 3 -13 0 -16 -8 -6 -17 -46 -16 -68 2 -18
15 -23 111 -6 111 6 0 10 8 10 18 0 10 9 24 20 32 11 8 20 22 20 31 0 10 6 20
13 22 9 4 8 8 -3 16 -12 8 -12 13 -2 23 9 9 12 9 12 -5 0 -23 9 -21 31 5 23
26 23 28 2 43 -11 8 -13 14 -5 19 7 4 12 2 12 -3 0 -6 7 -11 16 -11 8 0 12 5
9 10 -3 6 1 10 10 10 11 0 15 5 11 15 -3 9 1 18 8 21 10 4 14 21 14 51 0 45
-15 73 -38 73 -6 0 -9 4 -5 9 3 5 1 12 -4 15 -5 3 -12 -1 -15 -10 -3 -8 -10
-13 -15 -9 -5 3 -21 -6 -35 -20 -14 -14 -30 -25 -37 -25 -6 0 -24 -13 -39 -30
-15 -16 -35 -30 -44 -30 -9 0 -21 -9 -28 -20 -7 -11 -19 -20 -27 -20 -8 0 -11
-3 -8 -7 7 -6 -33 -39 -43 -36 -3 1 -16 -8 -28 -20 -30 -28 -82 -29 -101 -2
-16 20 -16 98 0 103 5 2 9 9 9 16 0 18 24 66 33 66 4 0 7 9 7 20 0 11 9 25 20
32 21 14 27 43 10 53 -5 3 -10 11 -10 17 0 6 6 5 16 -3 13 -10 17 -10 25 2 6
9 3 18 -8 26 -9 7 -13 16 -9 20 4 4 11 1 15 -6 10 -16 31 -6 31 15 0 8 4 14 8
14 12 0 8 41 -6 68 -7 12 -9 22 -5 22 13 0 -41 34 -58 37 -9 1 -30 -13 -47
-32 -16 -19 -35 -35 -42 -35 -7 0 -10 -3 -7 -6 7 -8 -62 -74 -77 -74 -5 0 -7
-3 -3 -6 7 -7 -17 -34 -30 -34 -4 0 -19 -16 -33 -35 -23 -32 -54 -52 -72 -47
-5 1 -8 -5 -8 -13 0 -25 -52 -14 -83 17 -22 22 -25 30 -14 34 10 3 14 17 12
40 -1 19 4 39 12 45 18 15 16 29 -4 45 -17 13 -17 13 0 14 9 0 17 -4 17 -10 0
-5 5 -10 11 -10 6 0 9 9 6 20 -3 11 1 27 9 34 16 17 18 42 4 51 -5 3 -10 12
-10 18 0 7 6 4 14 -5 16 -22 26 -13 26 24 0 15 5 28 10 28 6 0 10 9 10 20 0
11 -4 20 -10 20 -5 0 -10 5 -10 10 0 6 9 10 20 10 13 0 20 7 20 20 0 11 -4 20
-10 20 -5 0 -10 9 -10 20 0 11 -4 20 -10 20 -5 0 -10 6 -10 13 0 12 -14 14
-63 8 -5 -1 -5 -5 -2 -11 3 -5 3 -10 -2 -10 -14 0 -63 -47 -56 -54 3 -3 1 -6
-6 -6 -20 0 -44 -29 -37 -45 3 -8 1 -15 -5 -15 -13 0 -59 -46 -59 -60 0 -6 -4
-8 -10 -5 -5 3 -10 -2 -10 -12 0 -10 -16 -35 -36 -55 -31 -33 -41 -37 -85 -36
-36 0 -49 4 -49 15 0 8 -4 11 -10 8 -6 -4 -10 6 -10 24 0 16 5 31 11 33 7 2
12 26 12 56 0 29 4 52 8 52 5 0 9 13 9 29 0 16 5 31 12 33 18 6 17 56 -1 63
-14 6 -14 7 2 16 9 6 21 8 26 4 14 -8 7 51 -8 69 -11 13 -11 16 1 16 9 0 14 8
13 23 -3 38 -16 57 -40 57 -13 0 -25 5 -27 12 -5 15 -58 -35 -58 -54 0 -8 -9
-20 -20 -28 -11 -8 -20 -22 -20 -32 0 -10 -4 -18 -9 -18 -5 0 -16 -16 -25 -35
-9 -19 -21 -35 -26 -35 -5 0 -7 -9 -5 -20 2 -12 -2 -20 -10 -20 -11 0 -27 -22
-29 -42 -3 -20 -79 -78 -105 -80 -34 -2 -61 17 -61 42 0 10 -6 21 -12 23 -9 4
-9 8 -3 14 15 12 17 33 5 48 -7 8 -4 17 10 30 22 20 26 88 7 113 -7 9 -3 18
12 31 24 21 30 98 9 120 -10 11 -10 14 0 18 6 3 12 9 12 14 0 6 -4 8 -9 4 -5
-3 -11 5 -13 17 -2 19 -10 23 -38 24 -39 2 -89 -37 -90 -68 0 -10 -4 -18 -10
-18 -5 0 -10 -13 -10 -30 0 -16 -4 -30 -10 -30 -5 0 -10 -9 -10 -20 0 -11 -4
-20 -10 -20 -5 0 -10 -9 -10 -20 0 -11 -4 -20 -10 -20 -5 0 -10 -9 -10 -20 0
-11 -4 -20 -10 -20 -5 0 -10 -9 -10 -20 0 -11 -4 -20 -10 -20 -5 0 -10 -10
-10 -23 0 -26 -39 -53 -63 -44 -9 3 -18 -1 -21 -9 -3 -8 -10 -14 -16 -14 -6 0
-8 5 -5 10 3 6 -1 10 -10 10 -9 0 -13 5 -10 10 3 6 -1 10 -9 10 -12 0 -14 20
-13 125 2 93 -1 125 -10 125 -8 0 -12 13 -11 35 1 19 5 32 10 29 8 -5 12 30 8
71 -2 32 -24 75 -37 76 -47 4 -68 1 -66 -9 2 -7 0 -12 -5 -12 -11 0 -37 -63
-34 -82 2 -11 -3 -18 -11 -18 -11 0 -14 -8 -11 -29 3 -19 0 -30 -10 -34 -8 -3
-13 -14 -12 -24 2 -10 -1 -27 -7 -38 -6 -11 -11 -28 -12 -38 -1 -11 -6 -22
-11 -25 -5 -4 -11 -18 -13 -32 -1 -14 -8 -28 -15 -32 -6 -4 -8 -8 -3 -8 4 0
-1 -8 -10 -18 -28 -28 -113 -17 -113 14 0 8 -4 14 -10 14 -5 0 -10 12 -10 26
0 15 -8 33 -17 40 -17 13 -17 13 -1 14 15 0 18 9 17 55 -1 33 -6 53 -13 52 -6
-1 -10 18 -10 51 0 40 -4 52 -16 52 -12 1 -12 3 3 14 21 16 21 25 3 46 -8 8
-12 25 -11 38 1 18 -4 22 -27 23 -73 4 -78 2 -78 -21 0 -11 -4 -20 -10 -20 -5
0 -10 -9 -10 -19 0 -11 -6 -22 -12 -24 -10 -4 -10 -8 1 -15 12 -9 12 -12 -1
-26 -10 -9 -14 -25 -10 -42 3 -19 1 -25 -7 -20 -14 9 -15 -6 -1 -20 8 -8 6
-15 -4 -23 -8 -7 -12 -19 -9 -27 3 -8 -3 -24 -12 -34 -16 -18 -17 -20 -2 -20
10 0 17 -4 17 -10 0 -5 -4 -10 -10 -10 -5 0 -10 -11 -10 -24 0 -36 -52 -84
-88 -81 -38 3 -82 46 -82 79 0 13 -6 27 -12 29 -10 4 -9 8 2 17 11 9 12 13 3
17 -7 2 -13 18 -13 33 0 16 -4 32 -10 35 -5 3 -10 11 -10 16 0 6 5 7 10 4 6
-3 10 -2 10 4 0 5 -4 13 -10 16 -5 3 -10 28 -10 56 0 27 -4 49 -10 49 -5 0
-10 9 -10 20 0 11 -4 20 -10 20 -5 0 -10 8 -10 19 0 25 -41 32 -80 13z m450
-832 c0 -6 35 -10 84 -10 55 0 86 -4 88 -12 3 -7 24 -11 57 -9 30 1 60 -4 68
-11 8 -6 30 -11 49 -10 23 2 34 -2 34 -11 0 -9 9 -12 30 -9 21 3 30 0 30 -10
0 -9 12 -14 38 -13 20 0 40 -3 43 -8 3 -5 19 -10 35 -12 15 -1 30 -8 32 -14 2
-6 7 -9 12 -6 5 3 14 0 22 -7 7 -7 24 -15 38 -17 14 -1 28 -8 31 -13 4 -6 13
-8 20 -6 8 3 33 -5 57 -18 23 -13 42 -21 42 -17 0 3 8 0 18 -8 31 -26 61 -39
87 -39 14 0 25 -4 25 -10 0 -5 9 -10 19 -10 10 0 22 -7 25 -16 3 -8 10 -13 15
-9 9 5 32 -9 71 -46 9 -9 26 -14 38 -12 15 2 22 -2 22 -13 0 -8 4 -13 9 -9 5
3 16 -2 24 -10 9 -8 22 -15 29 -15 8 0 20 -9 28 -20 8 -11 25 -20 38 -20 13 0
20 -4 17 -10 -3 -6 4 -10 17 -10 13 0 29 -9 36 -20 7 -11 21 -20 32 -20 11 0
20 -7 20 -15 0 -9 6 -12 15 -9 9 4 23 -3 34 -15 10 -11 25 -21 32 -21 8 0 27
-16 42 -35 16 -20 32 -33 36 -30 5 2 21 -7 35 -22 24 -24 30 -25 48 -14 11 7
23 10 26 6 4 -3 0 -10 -7 -14 -11 -7 -6 -17 22 -45 37 -37 62 -45 70 -23 2 6
8 8 13 4 5 -4 3 -12 -4 -16 -9 -5 4 -25 44 -67 32 -32 61 -58 66 -56 4 1 8 -3
8 -9 0 -5 50 -59 111 -120 102 -100 130 -124 114 -100 -6 11 13 26 22 17 4 -3
-1 -14 -11 -25 -16 -17 -15 -20 14 -51 25 -27 33 -31 40 -20 5 8 13 11 17 6 4
-5 2 -11 -4 -13 -22 -8 -14 -34 17 -63 17 -15 30 -35 30 -44 0 -9 5 -16 10
-16 6 0 10 -8 10 -18 0 -10 11 -29 24 -41 14 -13 22 -29 19 -37 -3 -9 1 -14
12 -14 9 0 13 5 10 10 -3 6 2 10 12 10 16 0 16 -1 1 -17 -15 -14 -15 -19 -2
-45 8 -15 12 -28 9 -28 -4 0 1 -7 9 -16 9 -8 14 -20 11 -25 -4 -5 0 -9 9 -9 8
0 16 6 19 13 2 6 8 9 12 4 5 -4 0 -13 -9 -20 -17 -13 -17 -14 -1 -31 10 -9 15
-25 12 -36 -3 -11 1 -24 9 -31 8 -6 14 -20 14 -30 0 -11 5 -19 10 -19 6 0 10
-13 10 -30 0 -16 5 -30 10 -30 6 0 10 -13 10 -30 0 -16 5 -30 10 -30 6 0 10
-15 10 -34 0 -29 3 -34 20 -31 20 4 26 -5 13 -19 -12 -12 -14 -54 -3 -61 5 -3
10 -19 10 -36 0 -25 4 -29 27 -29 25 0 25 -1 10 -18 -19 -20 -23 -61 -7 -63 6
-1 15 -3 20 -4 6 -1 13 -3 18 -4 4 -1 1 -5 -7 -10 -18 -11 -23 -90 -7 -110 13
-16 15 -113 3 -122 -4 -3 -9 -23 -11 -45 -3 -21 -9 -40 -15 -42 -6 -2 -11 -17
-11 -33 0 -16 -5 -29 -10 -29 -6 0 -10 -6 -8 -12 1 -7 -25 -42 -60 -78 -34
-36 -62 -61 -62 -56 0 5 -7 2 -17 -5 -9 -8 -33 -15 -55 -16 -32 -1 -38 2 -38
18 0 11 7 22 15 25 20 8 19 16 -4 43 -18 21 -27 22 -105 19 -64 -2 -87 0 -91
10 -3 8 -17 13 -32 12 -65 -5 -73 -2 -71 28 3 31 19 52 42 52 9 0 16 5 16 10
0 6 13 10 29 10 17 0 33 5 36 10 3 6 15 10 26 10 10 0 19 6 19 13 0 9 10 13
28 12 15 0 33 5 41 13 18 18 16 78 -3 97 -17 18 -83 20 -88 4 -2 -7 -38 -12
-100 -12 -78 0 -99 3 -113 17 -16 16 -16 18 6 37 19 17 21 22 9 29 -8 5 -11
12 -7 17 5 4 13 1 18 -7 8 -11 12 -12 16 -2 2 6 13 12 24 12 10 0 19 5 19 10
0 6 9 10 20 10 11 0 23 7 26 15 4 8 9 13 13 11 4 -3 25 5 46 17 38 21 40 26
43 75 l4 52 -41 0 c-22 0 -43 -4 -46 -10 -3 -5 -28 -10 -56 -10 -27 0 -49 -4
-49 -10 0 -6 -28 -10 -63 -10 -60 0 -64 1 -63 23 2 26 62 97 84 97 8 0 23 11
34 25 11 14 23 23 28 20 5 -3 17 6 28 20 11 14 24 25 29 25 5 0 9 15 8 34 -1
40 -23 72 -39 56 -5 -5 -27 -10 -48 -10 -21 0 -38 -4 -38 -10 0 -5 -12 -10
-26 -10 -14 0 -32 -6 -40 -14 -7 -8 -23 -12 -34 -9 -11 3 -20 0 -20 -6 0 -21
-60 -12 -86 14 -23 23 -24 26 -7 32 31 12 47 33 35 45 -8 8 -6 15 5 26 13 13
16 13 24 1 7 -11 22 0 68 47 50 52 59 68 59 98 l0 36 -49 0 c-27 0 -49 -4 -49
-10 0 -5 -9 -10 -21 -10 -11 0 -27 -7 -36 -15 -8 -8 -19 -13 -24 -10 -5 4 -9
1 -9 -4 0 -6 -9 -11 -19 -11 -11 0 -21 -4 -23 -9 -3 -9 -40 -14 -86 -12 -37 2
-20 47 38 103 29 27 49 53 45 56 -3 4 -10 0 -15 -8 -5 -8 -12 -11 -15 -8 -4 4
2 17 14 29 12 13 21 19 21 14 0 -5 14 4 30 20 23 22 30 38 30 66 0 37 0 38
-40 37 -22 0 -40 -4 -40 -9 0 -5 -9 -9 -19 -9 -10 0 -21 -7 -25 -15 -3 -8 -12
-12 -19 -9 -8 3 -23 -6 -34 -20 -11 -14 -23 -23 -27 -19 -3 3 -15 -2 -26 -12
-11 -10 -20 -14 -20 -10 0 4 -9 0 -20 -10 -19 -17 -21 -17 -40 0 -26 24 -25
63 1 86 18 15 20 21 9 34 -10 12 -10 15 4 15 19 0 66 43 66 60 0 6 6 18 14 26
8 7 12 23 9 34 -3 12 1 22 11 26 13 5 10 11 -16 36 -17 16 -34 25 -37 21 -3
-4 -18 -14 -33 -22 -16 -8 -28 -21 -28 -29 0 -9 -3 -12 -6 -9 -4 3 -15 -5 -26
-19 -11 -13 -25 -23 -32 -22 -7 2 -25 -12 -40 -29 -23 -27 -35 -33 -67 -33
-32 0 -39 4 -39 19 0 11 -5 21 -12 23 -8 3 -8 10 4 26 8 12 18 19 21 15 4 -3
7 3 7 14 0 11 7 26 15 33 8 7 12 16 10 20 -3 5 6 20 20 34 14 15 23 31 20 36
-3 6 2 10 11 10 16 0 16 1 0 19 -13 14 -14 20 -5 23 18 6 20 58 2 59 -7 1 -23
2 -35 3 -17 2 -49 -24 -116 -91 -75 -75 -98 -93 -122 -93 -29 0 -29 1 -28 48
1 26 7 51 13 55 7 6 6 10 -2 14 -18 7 -16 23 3 23 8 0 13 4 10 9 -3 5 1 14 9
21 7 6 11 19 8 27 -4 10 -2 14 5 9 6 -3 13 -2 17 3 3 5 -3 14 -12 20 -16 9
-16 10 -2 16 10 4 15 15 13 31 -1 15 4 28 12 31 19 7 7 23 -17 23 -11 0 -17 5
-14 10 3 6 -3 10 -15 10 -23 0 -52 -23 -48 -38 2 -6 -16 -28 -39 -51 -24 -22
-43 -47 -43 -56 0 -8 -9 -20 -20 -27 -11 -7 -20 -18 -20 -25 0 -9 -15 -13 -45
-13 -41 0 -45 2 -45 25 0 14 -6 25 -12 25 -9 1 -8 5 2 13 9 7 14 20 12 30 -2
11 3 17 15 17 17 1 17 1 0 14 -15 12 -16 15 -2 26 9 7 13 15 10 18 -3 3 0 11
6 19 9 9 8 17 0 27 -9 10 -8 15 2 19 9 3 13 21 12 54 -1 42 -4 48 -24 49 -12
1 -28 -5 -35 -12 -8 -7 -16 -10 -20 -7 -3 4 -6 -1 -6 -11 0 -9 -4 -14 -10 -11
-6 4 -10 -5 -10 -19 0 -14 -4 -26 -10 -26 -5 0 -10 -8 -10 -18 0 -10 -9 -24
-20 -32 -11 -8 -20 -19 -20 -25 0 -6 -10 -22 -22 -35 -13 -14 -22 -28 -20 -33
4 -12 -51 4 -70 21 -23 19 -23 60 -1 84 15 17 15 18 -2 18 -15 0 -15 2 -4 16
18 22 20 164 2 171 -7 3 -10 9 -7 14 9 15 -36 10 -52 -5 -8 -8 -14 -22 -14
-30 0 -9 -4 -16 -10 -16 -5 0 -10 -11 -10 -25 0 -13 -9 -40 -20 -60 -11 -20
-20 -42 -20 -50 0 -8 -7 -15 -15 -15 -9 0 -12 -6 -8 -15 7 -19 -23 -44 -52
-44 -44 0 -54 20 -54 110 1 181 -1 210 -11 204 -5 -3 -10 -1 -10 4 0 16 -29
13 -46 -3 -8 -8 -14 -22 -14 -30 0 -9 -4 -16 -10 -16 -5 0 -10 -13 -10 -30 0
-16 -4 -30 -10 -30 -5 0 -10 -13 -10 -29 0 -17 -4 -33 -10 -36 -5 -3 -10 -16
-10 -29 0 -22 -50 -80 -67 -76 -18 3 -43 34 -43 52 0 11 -4 17 -9 14 -5 -3 -8
38 -7 91 1 65 -3 101 -11 109 -7 7 -13 21 -13 32 0 15 -6 18 -30 14 -37 -5
-49 -19 -52 -63 -1 -19 -6 -37 -12 -41 -5 -3 -9 -27 -9 -52 0 -26 -3 -49 -8
-52 -5 -3 -9 -15 -9 -28 0 -29 -27 -52 -62 -54 -19 -1 -28 3 -28 13 0 8 -4 15
-10 15 -5 0 -10 14 -10 31 0 16 -4 28 -9 25 -4 -3 -9 18 -10 47 0 28 -5 53
-11 55 -5 2 -10 19 -10 39 0 41 -19 63 -54 63 -26 0 -31 -10 -26 -54 1 -10 -4
-22 -11 -26 -8 -6 -12 -36 -12 -92 1 -81 0 -86 -29 -113 -26 -25 -31 -27 -54
-15 -13 7 -22 15 -19 18 2 2 -7 24 -20 49 -14 24 -25 55 -25 68 0 14 -4 25
-10 25 -5 0 -10 18 -10 40 0 22 -4 40 -10 40 -5 0 -10 9 -10 20 0 15 -7 20
-27 20 -55 -1 -59 -12 -58 -167 0 -112 -3 -143 -13 -143 -7 0 -10 -4 -7 -10 3
-5 -2 -10 -13 -10 -22 0 -72 46 -72 66 0 8 -4 14 -10 14 -5 0 -10 9 -10 20 0
11 -4 20 -10 20 -5 0 -10 12 -10 26 0 14 -4 23 -10 19 -6 -3 -10 5 -10 18 0
14 -7 28 -16 31 -8 3 -12 10 -9 16 9 14 -19 40 -43 40 -10 0 -23 -10 -29 -22
-14 -33 -9 -138 8 -149 11 -6 10 -9 -5 -15 -16 -6 -17 -9 -5 -18 20 -16 19
-119 -1 -127 -35 -14 -110 31 -110 66 0 8 -4 15 -10 15 -5 0 -10 8 -10 18 0
10 -9 24 -20 32 -11 8 -20 22 -20 30 0 24 -52 66 -80 66 -20 -1 -25 -6 -25
-26 0 -14 -4 -28 -9 -32 -10 -7 -36 15 -36 31 0 6 -4 11 -9 11 -5 0 -9 41 -10
90 -1 57 2 90 9 90 5 0 10 9 10 20 0 11 5 20 10 20 6 0 10 8 10 18 0 9 12 28
25 41 14 12 23 26 20 31 -6 9 51 60 68 60 7 0 20 11 31 24 10 14 24 22 32 19
8 -3 14 0 14 6 0 6 7 11 15 11 7 0 18 6 22 13 4 6 17 12 28 12 11 0 19 5 18
11 -1 6 11 10 28 9 17 -1 33 3 35 10 3 6 19 11 37 10 18 0 41 5 52 11 11 7 32
11 48 9 18 -2 27 1 27 11 0 9 12 14 35 14 19 0 35 5 35 10 0 6 22 10 49 10 28
0 53 5 56 10 3 6 26 10 50 10 24 0 47 5 50 10 3 6 42 10 86 10 46 0 79 4 79
10 0 6 55 10 145 10 90 0 145 -4 145 -10z m360 -20 c0 -5 -4 -10 -9 -10 -6 0
-13 5 -16 10 -3 6 1 10 9 10 9 0 16 -4 16 -10z m270 -91 c0 -5 -4 -9 -10 -9
-5 0 -10 7 -10 16 0 8 5 12 10 9 6 -3 10 -10 10 -16z m200 -75 c0 -8 -5 -12
-10 -9 -6 4 -8 11 -5 16 9 14 15 11 15 -7z m-1950 -24 c0 -5 -4 -10 -10 -10
-5 0 -10 5 -10 10 0 6 5 10 10 10 6 0 10 -4 10 -10z m-65 -60 c-3 -5 -11 -10
-16 -10 -6 0 -7 5 -4 10 3 6 11 10 16 10 6 0 7 -4 4 -10z m2355 -79 c0 -6 -4
-13 -10 -16 -5 -3 -10 1 -10 9 0 9 5 16 10 16 6 0 10 -4 10 -9z m210 -131 c0
-5 -4 -10 -10 -10 -5 0 -10 5 -10 10 0 6 5 10 10 10 6 0 10 -4 10 -10z m180
-126 c0 -8 -5 -12 -10 -9 -6 4 -8 11 -5 16 9 14 15 11 15 -7z m-4548 -46 c-7
-7 -12 -8 -12 -2 0 14 12 26 19 19 2 -3 -1 -11 -7 -17z m32 -19 c-3 -5 -10 -7
-15 -3 -5 3 -7 10 -3 15 3 5 10 7 15 3 5 -3 7 -10 3 -15z m1156 -13 c0 -11
-19 -15 -25 -6 -3 5 1 10 9 10 9 0 16 -2 16 -4z m-84 -39 c6 -3 15 -2 22 2 16
10 72 2 72 -10 0 -5 9 -9 20 -9 11 0 20 -4 20 -10 0 -5 8 -10 18 -10 9 0 30
-13 45 -30 16 -16 33 -30 38 -30 4 0 6 -6 3 -13 -3 -8 2 -20 11 -27 24 -20 18
-25 -27 -25 l-43 0 -1 -43 c0 -29 4 -42 13 -42 8 0 13 -6 11 -12 -3 -19 31
-80 42 -73 5 3 11 1 15 -5 3 -5 1 -10 -4 -10 -21 0 -11 -19 11 -22 21 -3 21
-4 4 -20 -10 -10 -13 -19 -7 -19 6 -1 16 -2 23 -3 6 0 13 -7 16 -15 3 -8 0
-11 -7 -7 -6 4 -11 3 -11 -3 0 -5 4 -13 10 -16 6 -4 6 -12 -2 -24 -16 -26 -84
-27 -100 -1 -7 11 -18 20 -25 20 -7 0 -13 7 -13 16 0 8 -4 12 -10 9 -5 -3 -10
1 -10 11 0 11 -6 15 -18 12 -16 -5 -42 12 -42 27 0 14 -30 35 -50 35 -12 0
-18 5 -15 10 10 16 -5 12 -23 -6 -20 -21 -24 -61 -5 -68 19 -8 16 -26 -4 -26
-15 0 -15 -2 3 -18 10 -10 28 -21 39 -26 16 -6 17 -9 5 -16 -12 -7 -11 -12 8
-28 12 -11 22 -30 22 -42 0 -13 3 -21 6 -17 8 7 54 -38 54 -53 0 -6 -4 -9 -8
-6 -5 3 -15 -5 -22 -18 -13 -25 -32 -28 -51 -9 -6 6 -18 9 -25 6 -9 -3 -14 1
-14 12 0 9 -4 14 -9 11 -5 -3 -12 1 -15 10 -3 9 -13 14 -20 11 -8 -3 -17 1
-20 9 -3 8 -14 14 -23 14 -10 0 -25 9 -33 20 -8 11 -22 20 -31 20 -10 0 -19 5
-21 12 -3 9 -11 9 -35 -1 -23 -9 -29 -17 -26 -32 3 -10 10 -19 15 -19 6 0 8
-9 5 -19 -5 -21 25 -75 36 -64 4 3 7 1 7 -6 0 -16 29 -45 37 -37 8 7 43 -23
43 -37 0 -5 -7 -4 -15 3 -31 26 -26 1 6 -30 18 -17 34 -42 35 -55 1 -21 -4
-24 -44 -27 -28 -2 -50 2 -58 9 -7 7 -20 13 -28 13 -9 0 -16 5 -16 11 0 6 -7
8 -15 5 -9 -3 -18 1 -21 9 -4 8 -17 15 -31 15 -13 0 -21 4 -18 10 4 6 -5 10
-19 10 -14 0 -26 5 -26 10 0 15 -29 12 -46 -4 -8 -8 -14 -29 -14 -47 0 -26 12
-44 64 -95 34 -35 61 -66 60 -69 -2 -3 -1 -3 2 0 11 8 44 -15 44 -30 0 -8 9
-15 20 -15 14 0 20 -7 20 -22 0 -12 -3 -18 -6 -15 -4 3 -17 -2 -30 -12 -23
-18 -80 -18 -69 -1 3 5 -9 8 -27 8 -17 -1 -34 4 -36 10 -2 7 -17 12 -33 12
-16 0 -29 5 -29 10 0 6 -13 10 -30 10 -16 0 -30 5 -30 10 0 6 -12 10 -26 10
-14 0 -23 -4 -20 -9 3 -5 -1 -12 -9 -15 -8 -3 -14 -11 -13 -17 4 -18 32 -46
41 -42 14 8 7 -10 -10 -23 -16 -12 -16 -13 -2 -14 9 0 26 -9 39 -20 13 -11 27
-20 32 -20 4 0 8 -7 8 -15 0 -8 9 -15 19 -15 11 0 22 -6 24 -12 4 -10 8 -9 16
2 5 8 13 11 18 7 4 -5 1 -12 -7 -17 -12 -7 -11 -12 8 -28 30 -26 30 -72 0 -73
-42 -2 -73 3 -76 12 -2 5 -26 9 -52 9 -27 0 -52 5 -55 10 -3 6 -29 10 -56 10
l-50 0 3 -52 c2 -37 7 -52 16 -50 7 1 15 -5 18 -13 3 -8 10 -12 15 -9 5 3 9 0
9 -5 0 -6 6 -11 14 -11 7 0 19 -7 26 -15 7 -9 19 -14 27 -11 8 3 16 -1 19 -9
4 -8 13 -15 20 -15 14 0 84 -63 84 -75 0 -3 -9 -5 -19 -5 -11 0 -21 -5 -23
-11 -5 -15 -106 -15 -120 -1 -7 7 -44 12 -90 12 -67 0 -78 -2 -79 -17 -1 -10
-2 -27 -3 -38 -1 -24 13 -59 21 -51 4 3 15 -1 25 -11 17 -15 19 -15 38 2 19
17 20 17 20 1 0 -9 -4 -14 -10 -11 -5 3 -10 -1 -10 -9 0 -10 9 -16 25 -16 13
0 40 -9 60 -20 41 -23 61 -25 68 -7 2 6 8 8 13 4 5 -4 2 -12 -6 -17 -12 -7
-10 -12 9 -29 21 -18 22 -22 8 -35 -11 -12 -42 -16 -126 -17 -61 0 -111 -5
-111 -10 0 -5 -16 -9 -36 -9 -19 0 -33 -4 -30 -9 4 -5 1 -11 -6 -13 -6 -2 -12
-12 -14 -21 -2 -15 8 -21 28 -18 4 0 11 -11 14 -25 4 -16 11 -23 21 -20 7 3
16 -1 19 -9 7 -18 65 -20 82 -3 6 6 15 8 19 3 5 -4 2 -10 -5 -12 -18 -7 -4
-23 19 -23 10 0 28 -6 39 -12 15 -10 22 -10 32 0 15 15 28 16 28 2 0 -5 -8
-10 -17 -10 -16 -1 -16 -2 -2 -13 25 -19 20 -47 -8 -47 -14 0 -21 -4 -18 -10
6 -10 -2 -12 -65 -12 -19 0 -38 -5 -41 -10 -4 -6 -30 -10 -59 -10 -61 1 -80
-13 -84 -61 -4 -41 2 -51 20 -36 12 10 16 8 21 -10 5 -19 12 -21 51 -19 28 1
47 -3 50 -10 2 -7 23 -12 50 -12 35 -1 54 -7 75 -25 27 -24 27 -25 9 -43 -10
-10 -24 -16 -30 -14 -7 2 -12 -1 -12 -7 0 -6 -16 -11 -36 -11 -21 0 -33 -4
-29 -10 6 -10 3 -12 -42 -14 -16 -1 -35 -6 -43 -11 -8 -5 -22 -10 -30 -10 -25
-1 -58 -24 -56 -39 1 -8 7 -20 13 -27 6 -8 11 -18 10 -24 -1 -6 26 -11 61 -13
34 -2 62 -7 62 -12 0 -6 32 -10 71 -10 69 0 99 -12 99 -40 0 -17 -26 -40 -45
-40 -8 0 -18 -6 -21 -14 -3 -9 -15 -13 -30 -10 -15 3 -27 -1 -30 -10 -3 -8
-14 -13 -24 -11 -10 2 -21 -3 -24 -10 -2 -7 -13 -12 -23 -10 -10 1 -26 -4 -35
-13 -19 -16 -25 -72 -8 -72 6 0 10 -8 8 -17 -2 -15 6 -19 50 -21 31 -2 52 1
52 7 0 7 31 11 81 11 79 0 109 -11 109 -40 0 -13 -45 -60 -58 -60 -5 0 -15 -7
-22 -15 -7 -9 -15 -13 -18 -11 -2 3 -14 0 -26 -6 -11 -7 -25 -11 -29 -10 -4 1
-10 -5 -13 -13 -4 -8 -13 -15 -21 -15 -24 0 -43 -27 -43 -62 0 -26 6 -37 28
-49 28 -15 87 -14 77 2 -4 5 18 9 49 9 31 0 56 5 56 10 0 16 70 12 86 -5 21
-21 15 -71 -8 -67 -10 2 -18 -3 -18 -11 0 -13 -13 -23 -40 -32 -25 -9 -40 -19
-40 -27 0 -15 -31 -37 -51 -38 -18 0 -32 -23 -33 -55 0 -13 7 -21 22 -23 12
-2 22 -9 22 -15 0 -9 13 -11 40 -9 39 4 52 16 28 25 -8 2 -9 8 -4 13 5 5 11 4
13 -3 5 -15 63 -18 63 -4 0 5 -6 11 -12 14 -8 2 -9 8 -4 13 5 5 11 4 13 -3 5
-13 55 -18 66 -6 4 3 -1 12 -11 19 -9 8 -12 14 -5 14 6 0 15 -4 18 -10 9 -14
62 -12 68 3 2 6 8 8 13 4 5 -4 2 -13 -6 -18 -11 -8 -12 -12 -2 -16 18 -7 16
-63 -3 -63 -24 0 -175 -156 -175 -181 0 -38 26 -53 85 -50 27 1 28 3 13 15
-10 7 -15 16 -11 19 10 11 25 8 18 -3 -4 -6 5 -10 19 -10 14 0 26 5 26 10 0 6
-8 10 -17 10 -14 0 -15 2 -4 13 11 10 14 10 18 0 6 -17 28 -16 43 1 6 8 18 12
26 9 8 -3 14 -1 14 5 0 5 15 12 33 15 24 3 37 -1 52 -16 23 -25 28 -47 11 -47
-7 0 -19 -11 -26 -25 -7 -14 -15 -23 -18 -20 -9 8 -32 -24 -32 -45 0 -12 -4
-19 -8 -16 -5 3 -15 -6 -22 -19 -7 -14 -20 -25 -27 -25 -8 0 -11 -4 -8 -10 3
-5 1 -10 -4 -10 -20 0 -11 -36 14 -58 31 -27 66 -28 85 -2 8 11 21 20 30 20
20 1 52 25 43 33 -3 4 3 7 13 7 11 0 24 4 30 9 5 5 29 11 54 13 43 3 45 1 48
-25 2 -19 -3 -34 -17 -46 -12 -10 -21 -25 -21 -32 0 -8 -9 -21 -20 -29 -11 -8
-20 -20 -20 -27 0 -7 -10 -24 -22 -39 -13 -14 -23 -30 -23 -35 0 -5 -7 -14
-15 -19 -12 -8 -12 -10 3 -16 9 -3 14 -10 11 -15 -3 -5 -2 -14 2 -21 5 -8 11
-6 20 7 12 16 14 17 20 2 3 -10 15 -17 25 -17 22 0 24 11 7 28 -9 9 -9 12 -1
12 7 0 15 -5 18 -10 4 -7 14 -3 25 10 9 11 21 20 26 20 5 0 18 7 28 15 15 11
17 17 7 29 -8 10 -9 16 -1 21 5 3 10 -1 10 -10 0 -13 3 -14 23 -3 12 7 26 11
30 10 4 -1 10 5 13 13 8 19 28 19 44 0 7 -9 20 -13 27 -10 8 3 13 2 11 -2 -29
-65 -50 -103 -58 -108 -6 -4 -8 -11 -4 -16 3 -6 -2 -17 -12 -24 -11 -8 -15
-15 -10 -15 5 0 1 -9 -9 -20 -10 -11 -14 -20 -10 -20 4 0 1 -8 -9 -19 -16 -18
-13 -51 6 -51 5 0 8 -6 6 -12 -3 -7 1 -18 7 -25 18 -18 11 -57 -11 -62 -10 -2
-25 -12 -32 -22 -8 -11 -25 -19 -42 -19 -15 0 -30 -5 -32 -11 -5 -14 -222 -13
-226 1 -2 6 -17 10 -33 10 -16 0 -29 5 -29 10 0 6 -9 10 -20 10 -11 0 -20 5
-20 10 0 6 -9 10 -20 10 -11 0 -20 5 -20 10 0 6 -7 10 -16 10 -8 0 -12 5 -9
10 3 6 -1 10 -10 10 -9 0 -13 5 -10 10 6 10 -7 14 -32 11 -7 -1 -13 3 -13 9 0
6 -7 18 -15 26 -8 9 -15 12 -15 7 0 -4 -8 4 -17 17 -10 14 -64 70 -120 125
-57 54 -103 104 -103 110 0 15 -65 85 -79 85 -7 0 -9 5 -6 10 3 6 1 10 -4 10
-6 0 -11 7 -11 16 0 9 -15 30 -34 46 -19 16 -33 35 -30 41 2 7 -7 21 -21 31
-14 10 -25 26 -25 35 0 9 -9 23 -20 31 -11 8 -20 22 -20 32 0 10 -4 18 -10 18
-5 0 -10 9 -10 20 0 11 -4 20 -10 20 -5 0 -10 6 -10 14 0 8 -13 40 -30 71 -16
31 -30 63 -30 71 0 8 -6 14 -14 14 -9 0 -12 7 -9 19 3 10 -2 21 -10 24 -9 3
-13 16 -12 31 2 16 -2 26 -10 26 -9 0 -12 12 -10 39 2 26 -2 41 -10 45 -7 2
-12 17 -10 35 2 21 -2 31 -11 31 -8 0 -14 8 -14 18 0 10 -5 23 -12 30 -9 9 -8
12 7 12 18 1 18 2 4 13 -9 7 -16 26 -15 45 1 19 -5 38 -12 44 -6 6 -12 19 -12
30 0 10 -5 16 -10 13 -5 -3 -10 1 -10 9 0 9 5 16 10 16 6 0 10 9 10 20 0 11
-4 20 -10 20 -5 0 -10 9 -10 19 0 11 -6 22 -12 25 -10 5 -10 7 0 12 14 7 17
64 2 64 -5 0 -10 16 -10 36 0 21 -4 33 -10 29 -5 -3 -10 1 -10 9 0 9 5 16 10
16 6 0 10 18 10 40 0 22 -4 40 -10 40 -6 0 -10 26 -10 59 0 33 -5 63 -11 67
-8 4 -8 9 0 17 17 17 15 489 -1 506 -10 11 -10 14 0 18 6 3 12 18 12 34 0 16
5 29 10 29 6 0 10 32 10 76 0 47 -4 73 -10 69 -17 -11 -11 10 10 33 15 16 20
35 20 76 0 34 5 56 12 58 14 5 12 68 -2 82 -16 16 -12 25 9 21 24 -4 35 40 15
60 -19 19 -18 23 9 27 17 2 21 8 19 28 -2 14 -8 27 -13 28 -17 7 -9 21 14 24
16 2 22 9 21 28 -1 14 3 28 9 32 5 3 11 18 11 33 1 14 6 29 11 33 15 11 12 36
-5 44 -12 5 -10 8 8 14 12 3 30 22 38 41 16 32 16 35 -1 47 -16 12 -16 13 -2
19 9 3 16 3 14 -1 -1 -4 3 -9 8 -12 6 -3 11 10 13 28 2 17 7 32 13 32 5 0 9 9
9 20 0 11 5 20 10 20 6 0 10 8 10 18 0 10 9 24 20 32 22 16 27 46 8 53 -8 2
-9 8 -4 13 5 5 11 4 13 -3 7 -18 23 -16 23 2 0 9 11 27 25 41 23 23 25 54 3
54 -5 0 -6 5 -3 10 7 12 26 14 24 3 -3 -20 3 -22 19 -5 11 9 17 21 14 25 -2 5
12 24 32 43 20 19 36 40 36 48 0 8 6 16 13 19 9 3 9 7 -1 19 -9 11 -10 18 -2
23 5 3 10 -1 10 -9 0 -9 2 -16 5 -16 9 0 95 93 95 102 0 4 4 8 10 8 15 0 50
33 50 47 0 7 29 43 65 79 63 64 76 84 55 84 -5 0 -10 -7 -10 -15 0 -8 -4 -15
-10 -15 -15 0 -12 10 14 41 14 16 27 25 30 20 4 -5 0 -11 -6 -14 -10 -4 -11
-7 0 -18 10 -11 12 -10 12 5 0 12 5 16 15 12 9 -3 28 8 48 29 19 19 40 35 48
35 8 0 21 9 29 20 8 12 26 20 42 20 15 0 28 5 28 10 0 6 14 10 30 10 17 0 30
4 30 9 0 15 94 22 116 8z m704 -1 c0 -11 -19 -15 -25 -6 -3 5 1 10 9 10 9 0
16 -2 16 -4z m-985 -46 c3 -5 -1 -10 -10 -10 -9 0 -13 5 -10 10 3 6 8 10 10
10 2 0 7 -4 10 -10z m-665 -40 c0 -5 -4 -10 -10 -10 -5 0 -10 5 -10 10 0 6 5
10 10 10 6 0 10 -4 10 -10z m576 -37 c-10 -10 -19 5 -10 18 6 11 8 11 12 0 2
-7 1 -15 -2 -18z m-90 -89 c-9 -9 -20 -13 -24 -9 -4 4 -1 10 6 12 6 3 12 12
12 21 0 12 3 13 11 5 9 -9 7 -16 -5 -29z m-716 -195 c0 -6 -4 -7 -10 -4 -5 3
-10 11 -10 16 0 6 5 7 10 4 6 -3 10 -11 10 -16z m2685 12 c3 -5 1 -12 -5 -16
-5 -3 -10 1 -10 9 0 18 6 21 15 7z m375 -1 c0 -5 -5 -10 -11 -10 -5 0 -7 5 -4
10 3 6 8 10 11 10 2 0 4 -4 4 -10z m-525 -19 c3 -5 1 -12 -5 -16 -5 -3 -10 1
-10 9 0 18 6 21 15 7z m495 -8 c14 -5 49 -9 79 -8 36 0 55 -3 58 -12 4 -9 20
-13 48 -12 24 2 51 -3 59 -10 9 -8 27 -11 41 -9 14 3 30 -1 36 -8 6 -8 24 -14
40 -14 16 0 29 -4 29 -10 0 -15 58 -12 63 3 2 7 8 8 13 3 5 -5 4 -11 -3 -13
-21 -8 -15 -23 10 -23 12 0 57 -18 100 -40 83 -43 103 -47 110 -27 2 6 8 8 13
4 5 -4 2 -12 -5 -16 -17 -11 -5 -32 14 -24 9 3 15 -1 15 -10 0 -9 7 -14 18
-13 9 2 20 -2 24 -7 4 -7 12 -6 22 2 14 11 16 11 16 -3 0 -10 -4 -14 -10 -11
-5 3 -10 -1 -10 -9 0 -11 9 -16 27 -16 14 0 23 -3 20 -7 -8 -8 23 -32 42 -33
7 0 22 -10 33 -22 16 -19 21 -20 28 -8 5 8 13 11 17 6 4 -5 2 -11 -4 -13 -18
-6 -16 -23 1 -23 16 0 106 -84 106 -100 0 -5 3 -9 8 -8 4 2 40 -30 79 -70 40
-39 79 -72 88 -72 18 0 20 -17 3 -22 -16 -6 42 -64 59 -60 15 3 18 -14 3 -23
-5 -3 -10 -11 -10 -16 0 -6 5 -7 10 -4 6 3 10 -1 10 -9 0 -10 9 -16 25 -16 14
0 25 -4 25 -10 0 -5 -7 -10 -15 -10 -13 0 -13 -3 -3 -20 7 -11 18 -20 25 -20
7 0 12 -3 12 -7 -4 -23 3 -33 21 -33 23 0 27 -18 5 -26 -22 -9 -9 -23 15 -17
21 6 29 -12 8 -19 -6 -2 -8 -10 -4 -17 5 -7 14 -10 22 -7 8 3 14 -1 14 -10 0
-8 -4 -12 -10 -9 -5 3 -10 -1 -10 -9 0 -9 6 -13 14 -10 19 7 32 -16 15 -28
-11 -7 -11 -11 -1 -15 6 -2 12 -12 12 -20 0 -9 10 -24 22 -35 18 -16 20 -21 8
-28 -11 -7 -9 -13 11 -30 16 -14 20 -23 12 -26 -7 -3 -13 -13 -13 -21 0 -9 3
-13 7 -10 11 12 32 -27 21 -40 -7 -9 -6 -17 4 -27 8 -7 13 -28 12 -45 -1 -20
3 -31 11 -31 9 0 12 -14 10 -49 -2 -31 2 -51 9 -54 6 -3 11 -22 11 -43 l0 -39
-705 -1 c-466 -1 -707 2 -711 8 -4 6 -25 10 -48 10 -26 -1 -40 3 -38 11 1 7
-8 11 -20 11 -14 -1 -23 4 -23 13 0 8 -4 12 -9 8 -5 -3 -16 1 -24 9 -8 8 -18
12 -21 8 -4 -3 -17 6 -30 21 -13 15 -30 27 -37 27 -8 0 -21 9 -29 20 -8 11
-21 20 -30 20 -20 1 -52 25 -43 33 3 4 1 7 -6 7 -17 0 -41 25 -41 43 0 8 -9
22 -20 32 -11 10 -20 27 -20 37 0 11 -4 16 -10 13 -6 -3 -10 4 -10 17 0 13
-11 31 -24 42 -14 10 -22 24 -19 32 3 8 0 14 -6 14 -6 0 -11 9 -11 20 0 11 -4
20 -10 20 -5 0 -10 9 -10 19 0 10 -7 22 -16 25 -9 4 -14 13 -10 21 3 9 -1 18
-10 22 -8 3 -13 11 -10 18 2 7 -6 21 -20 32 -13 10 -22 24 -19 31 2 7 -2 15
-10 18 -8 4 -15 15 -15 25 0 10 -5 19 -11 19 -6 0 -8 7 -5 15 3 9 -1 18 -9 21
-8 4 -15 17 -15 31 0 13 -4 21 -10 18 -6 -4 -10 5 -10 20 0 15 -4 24 -10 20
-5 -3 -10 1 -10 9 0 9 -4 16 -10 16 -5 0 -10 9 -10 21 0 11 -4 17 -10 14 -5
-3 -10 1 -10 9 0 8 -11 36 -25 61 -14 25 -23 45 -20 45 3 0 -4 10 -17 23 -13
12 -24 29 -26 37 -2 8 -8 17 -13 18 -5 2 -9 12 -9 23 0 10 -4 19 -10 19 -5 0
-10 9 -10 20 0 11 -4 20 -10 20 -5 0 -10 9 -10 20 0 11 -4 20 -10 20 -5 0 -10
8 -10 18 0 10 -9 24 -20 32 -11 8 -20 20 -20 27 0 7 -9 28 -19 47 -19 33 -24
55 -22 89 1 12 10 17 31 17 30 0 41 14 18 23 -8 2 -9 8 -4 13 5 5 11 4 13 -3
5 -15 63 -18 63 -3 0 6 16 10 37 10 35 0 36 0 18 20 -17 19 -17 20 -1 20 9 0
15 -4 11 -9 -3 -6 12 -10 36 -9 22 0 43 6 45 12 3 7 20 10 43 8 23 -2 49 2 62
11 15 9 46 14 83 12 35 -1 60 3 62 10 6 14 288 12 324 -2z m175 8 c3 -5 1 -12
-5 -16 -5 -3 -10 1 -10 9 0 18 6 21 15 7z m400 -131 c-3 -5 -10 -10 -16 -10
-5 0 -9 5 -9 10 0 6 7 10 16 10 8 0 12 -4 9 -10z m-4045 -20 c0 -5 -2 -10 -4
-10 -3 0 -8 5 -11 10 -3 6 -1 10 4 10 6 0 11 -4 11 -10z m4130 -20 c0 -5 -4
-10 -10 -10 -5 0 -10 5 -10 10 0 6 5 10 10 10 6 0 10 -4 10 -10z m2455 0 c-3
-5 -11 -10 -16 -10 -6 0 -7 5 -4 10 3 6 11 10 16 10 6 0 7 -4 4 -10z m-70 -39
c3 -5 1 -12 -5 -16 -5 -3 -10 1 -10 9 0 18 6 21 15 7z m-6305 -91 c0 -5 -4
-10 -10 -10 -5 0 -10 5 -10 10 0 6 5 10 10 10 6 0 10 -4 10 -10z m4120 0 c0
-5 -4 -10 -10 -10 -5 0 -10 5 -10 10 0 6 5 10 10 10 6 0 10 -4 10 -10z m1505
-20 c-3 -5 -10 -10 -16 -10 -5 0 -9 5 -9 10 0 6 7 10 16 10 8 0 12 -4 9 -10z
m545 0 c0 -5 -4 -10 -10 -10 -5 0 -10 5 -10 10 0 6 5 10 10 10 6 0 10 -4 10
-10z m-4170 -40 c0 -5 7 -10 16 -10 20 0 44 -24 44 -44 0 -9 7 -16 16 -16 8 0
12 5 9 10 -3 6 -2 10 4 10 17 0 22 -18 6 -24 -20 -7 -15 -26 11 -51 12 -11 20
-28 19 -37 -2 -10 1 -18 6 -18 5 0 13 -8 16 -17 4 -10 15 -26 26 -35 11 -10
17 -24 13 -33 -3 -9 0 -15 9 -15 8 0 15 5 15 11 0 5 5 7 12 3 9 -6 9 -9 0 -12
-18 -6 -15 -26 9 -51 11 -12 18 -28 15 -36 -7 -20 17 -25 31 -6 8 10 12 11 13
4 0 -6 -4 -15 -10 -18 -17 -11 -11 -33 16 -60 14 -14 23 -29 20 -34 -3 -5 1
-12 10 -15 8 -3 13 -10 10 -15 -3 -5 6 -20 20 -34 14 -14 23 -31 19 -37 -3 -5
1 -10 9 -10 10 0 16 -9 16 -25 0 -14 5 -25 10 -25 6 0 10 -8 10 -18 0 -10 9
-24 20 -32 11 -8 20 -22 20 -32 0 -21 16 -24 23 -5 2 7 8 8 13 3 5 -5 4 -11
-3 -13 -20 -7 -15 -37 7 -53 11 -8 20 -22 20 -32 0 -21 16 -24 23 -5 2 6 8 9
12 4 5 -4 3 -13 -3 -19 -15 -15 -16 -48 -1 -48 12 0 35 -21 36 -33 2 -20 26
-67 35 -67 5 0 6 -4 3 -10 -3 -5 1 -10 10 -10 9 0 14 -4 11 -8 -2 -4 0 -14 5
-22 8 -13 10 -13 18 0 6 8 13 11 18 7 4 -5 3 -11 -3 -15 -18 -12 -25 -42 -10
-42 8 0 16 6 19 13 2 7 8 8 13 3 5 -5 4 -11 -3 -13 -7 -3 -13 -16 -13 -29 0
-14 4 -22 10 -19 6 4 10 -8 10 -29 0 -29 4 -36 20 -36 21 0 28 -16 10 -22 -6
-2 -10 -40 -10 -88 0 -47 0 -109 0 -139 -1 -34 4 -58 12 -63 10 -8 10 -11 1
-15 -7 -2 -13 -13 -13 -24 0 -10 -4 -19 -10 -19 -5 0 -10 -21 -10 -46 0 -27
-4 -43 -10 -39 -5 3 -10 -2 -10 -13 0 -10 -9 -28 -20 -40 -11 -12 -20 -28 -20
-37 0 -8 -6 -15 -14 -15 -9 0 -13 -7 -11 -20 2 -11 0 -20 -4 -20 -5 0 -14 -13
-21 -30 -7 -16 -16 -30 -21 -30 -9 0 -29 -40 -35 -68 -1 -7 -12 -21 -23 -31
-12 -10 -21 -26 -21 -35 0 -9 -4 -16 -10 -16 -5 0 -10 -8 -10 -18 0 -10 -9
-24 -20 -32 -11 -8 -20 -23 -20 -33 0 -9 -7 -20 -15 -23 -8 -4 -12 -10 -9 -16
3 -5 -6 -23 -22 -39 -15 -16 -24 -29 -19 -29 4 0 1 -8 -8 -18 -10 -10 -15 -21
-11 -24 3 -3 -6 -15 -20 -26 -15 -11 -26 -27 -26 -36 0 -9 -4 -16 -8 -16 -4 0
-9 -10 -9 -22 -1 -13 -7 -24 -13 -26 -5 -2 -10 -9 -10 -16 0 -7 -9 -21 -20
-31 -11 -10 -20 -26 -20 -37 0 -10 -4 -18 -10 -18 -5 0 -10 -8 -10 -18 0 -10
-9 -24 -20 -32 -11 -8 -20 -20 -20 -28 0 -7 -7 -20 -15 -28 -8 -8 -11 -22 -8
-32 3 -9 3 -14 -2 -10 -10 9 -47 -31 -39 -43 3 -5 -1 -12 -10 -15 -8 -3 -13
-14 -11 -25 2 -10 -1 -19 -6 -19 -15 0 -41 -28 -35 -38 6 -10 -29 -42 -45 -42
-5 0 -37 27 -69 60 -32 33 -64 60 -71 60 -7 0 -10 3 -6 6 3 3 -32 43 -79 89
-46 46 -84 88 -84 93 0 5 -15 24 -32 43 -18 18 -33 40 -34 47 -2 7 -11 21 -22
30 -10 9 -17 23 -15 29 3 7 -2 16 -11 19 -9 3 -16 13 -16 21 0 9 -10 24 -21
34 -12 11 -19 25 -15 34 3 9 0 15 -9 15 -8 0 -15 9 -15 19 0 11 -4 23 -10 26
-5 3 -10 17 -10 30 0 13 -4 27 -10 30 -5 3 -10 15 -10 26 0 10 -4 19 -10 19
-5 0 -10 9 -10 20 0 11 -4 20 -10 20 -5 0 -10 14 -10 30 0 17 -4 30 -10 30 -5
0 -10 12 -10 26 0 14 -6 32 -14 40 -8 7 -13 29 -12 46 1 18 -3 38 -9 44 -6 6
-11 29 -10 50 0 22 -4 42 -9 46 -5 3 -10 32 -11 63 0 31 -6 60 -13 63 -8 6
-11 56 -10 170 1 141 3 162 17 162 14 1 14 2 -1 14 -22 16 -23 42 -3 50 11 4
14 14 10 35 -3 18 0 35 8 43 7 7 13 30 11 51 -1 22 5 44 13 53 13 12 12 15 -1
20 -20 8 -21 24 -2 24 9 0 13 7 11 20 -2 13 2 20 11 20 19 0 18 10 -3 26 -17
13 -17 13 0 14 9 0 17 6 17 14 0 8 6 17 13 19 9 4 8 8 -3 16 -12 8 -11 13 10
31 20 17 22 23 10 30 -12 7 -11 12 8 28 12 11 22 26 22 35 0 8 6 18 13 20 9 4
8 8 -3 16 -13 10 -13 12 0 20 8 5 18 7 22 5 4 -3 8 -1 8 5 0 5 -6 12 -12 14
-10 4 -10 8 2 16 8 5 18 7 22 5 4 -3 8 1 8 10 0 8 -6 17 -12 19 -8 4 -4 8 10
12 22 7 31 25 12 25 -5 0 -10 5 -10 10 0 6 9 10 20 10 12 0 20 7 20 16 0 9 11
25 25 36 24 19 25 21 8 34 -17 13 -17 13 2 14 11 0 28 9 38 20 18 22 22 32 10
28 -5 -2 -10 1 -13 7 -3 5 2 10 10 10 9 0 28 13 44 28 27 27 27 29 10 42 -18
14 -18 14 5 15 16 0 59 37 147 125 68 69 130 125 139 125 8 0 15 5 15 10 0 6
-4 10 -10 10 -5 0 -10 5 -10 10 0 6 5 10 10 10 6 0 10 -4 10 -10z m3650 0 c0
-5 -7 -10 -16 -10 -8 0 -12 5 -9 10 3 6 10 10 16 10 5 0 9 -4 9 -10z m-5565
-40 c3 -5 -1 -10 -9 -10 -9 0 -16 5 -16 10 0 6 4 10 9 10 6 0 13 -4 16 -10z
m5625 -111 c0 -6 -4 -7 -10 -4 -5 3 -10 11 -10 16 0 6 5 7 10 4 6 -3 10 -11
10 -16z m-4586 -2 c4 4 4 0 0 -10 -3 -9 -10 -17 -16 -17 -5 0 -6 5 -3 10 3 6
-1 10 -10 10 -9 0 -13 5 -10 10 5 8 11 8 19 1 7 -6 16 -8 20 -4z m1046 -13 c0
-8 -4 -12 -10 -9 -5 3 -10 10 -10 16 0 5 5 9 10 9 6 0 10 -7 10 -16z m-2460
-64 c0 -5 -4 -10 -10 -10 -5 0 -10 5 -10 10 0 6 5 10 10 10 6 0 10 -4 10 -10z
m40 -20 c0 -5 -4 -10 -10 -10 -5 0 -10 5 -10 10 0 6 5 10 10 10 6 0 10 -4 10
-10z m6625 -40 c3 -5 -1 -10 -10 -10 -9 0 -13 5 -10 10 3 6 8 10 10 10 2 0 7
-4 10 -10z m-35 -14 c0 -11 -19 -15 -25 -6 -3 5 1 10 9 10 9 0 16 -2 16 -4z
m-1050 -51 c0 -8 -2 -15 -4 -15 -2 0 -6 7 -10 15 -3 8 -1 15 4 15 6 0 10 -7
10 -15z m-60 -46 c0 -6 -4 -7 -10 -4 -5 3 -10 11 -10 16 0 6 5 7 10 4 6 -3 10
-11 10 -16z m-2875 -79 c-3 -5 -11 -10 -16 -10 -6 0 -7 5 -4 10 3 6 11 10 16
10 6 0 7 -4 4 -10z m2775 0 c0 -5 -4 -10 -9 -10 -6 0 -13 5 -16 10 -3 6 1 10
9 10 9 0 16 -4 16 -10z m290 -131 c0 -5 -4 -9 -10 -9 -5 0 -10 7 -10 16 0 8 5
12 10 9 6 -3 10 -10 10 -16z m1250 11 c0 -5 -4 -10 -10 -10 -5 0 -10 5 -10 10
0 6 5 10 10 10 6 0 10 -4 10 -10z m-7085 -20 c3 -5 -1 -10 -10 -10 -9 0 -13 5
-10 10 3 6 8 10 10 10 2 0 7 -4 10 -10z m5795 -10 c0 -5 -7 -7 -15 -4 -8 4
-12 10 -9 15 6 11 24 2 24 -11z m-4505 -21 c-10 -15 -25 -10 -19 6 4 8 10 12
15 9 5 -3 7 -10 4 -15z m5685 5 c0 -8 -5 -12 -10 -9 -6 4 -8 11 -5 16 9 14 15
11 15 -7z m-6875 -25 c-10 -15 -25 -10 -19 6 4 8 10 12 15 9 5 -3 7 -10 4 -15z
m1235 0 c0 -5 -4 -9 -10 -9 -5 0 -10 7 -10 16 0 8 5 12 10 9 6 -3 10 -10 10
-16z m5540 -19 c0 -5 -4 -10 -10 -10 -5 0 -10 5 -10 10 0 6 5 10 10 10 6 0 10
-4 10 -10z m-6660 -14 c0 -11 -19 -15 -25 -6 -3 5 1 10 9 10 9 0 16 -2 16 -4z
m5696 -183 c-10 -10 -19 5 -10 18 6 11 8 11 12 0 2 -7 1 -15 -2 -18z m-96 -34
c0 -5 -7 -9 -15 -9 -9 0 -12 6 -9 15 6 15 24 11 24 -6z m-4525 -19 c-3 -5 -10
-10 -16 -10 -5 0 -9 5 -9 10 0 6 7 10 16 10 8 0 12 -4 9 -10z m1750 0 c-3 -5
-11 -10 -16 -10 -6 0 -7 5 -4 10 3 6 11 10 16 10 6 0 7 -4 4 -10z m-3165 -80
c0 -5 -4 -10 -10 -10 -5 0 -10 5 -10 10 0 6 5 10 10 10 6 0 10 -4 10 -10z
m7290 0 c0 -5 -4 -10 -10 -10 -5 0 -10 5 -10 10 0 6 5 10 10 10 6 0 10 -4 10
-10z m-7065 -60 c-3 -5 -11 -10 -16 -10 -6 0 -7 5 -4 10 3 6 11 10 16 10 6 0
7 -4 4 -10z m6835 0 c0 -5 -4 -10 -10 -10 -5 0 -10 5 -10 10 0 6 5 10 10 10 6
0 10 -4 10 -10z m-6715 -79 c3 -5 1 -12 -5 -16 -5 -3 -10 1 -10 9 0 18 6 21
15 7z m6570 -12 c-10 -15 -25 -10 -19 6 4 8 10 12 15 9 5 -3 7 -10 4 -15z
m-3375 -99 c0 -5 -4 -10 -10 -10 -18 0 -10 -18 10 -23 13 -3 20 0 20 9 0 11
14 14 60 13 53 -1 64 -5 93 -33 26 -24 34 -40 35 -70 1 -22 7 -43 13 -47 7 -4
-6 -23 -36 -53 -45 -43 -51 -46 -102 -46 -50 0 -56 3 -100 47 -27 27 -42 48
-35 51 7 2 12 22 12 48 0 24 5 44 10 44 14 0 12 38 -2 42 -9 3 -8 9 2 21 17
19 30 22 30 7z m194 -5 c11 -8 17 -18 13 -21 -3 -3 -16 3 -28 15 -26 24 -14
28 15 6z m-3794 -166 c0 -5 -4 -9 -10 -9 -5 0 -10 7 -10 16 0 8 5 12 10 9 6
-3 10 -10 10 -16z m120 -19 c0 -5 -4 -10 -10 -10 -5 0 -10 5 -10 10 0 6 5 10
10 10 6 0 10 -4 10 -10z m1270 0 c0 -5 -4 -10 -10 -10 -5 0 -10 5 -10 10 0 6
5 10 10 10 6 0 10 -4 10 -10z m5920 0 c0 -5 -4 -10 -10 -10 -5 0 -10 5 -10 10
0 6 5 10 10 10 6 0 10 -4 10 -10z m-150 -20 c0 -5 -4 -10 -10 -10 -5 0 -10 5
-10 10 0 6 5 10 10 10 6 0 10 -4 10 -10z m-120 -20 c0 -5 -4 -10 -10 -10 -5 0
-10 5 -10 10 0 6 5 10 10 10 6 0 10 -4 10 -10z m-6650 -20 c0 -5 -4 -10 -10
-10 -5 0 -10 5 -10 10 0 6 5 10 10 10 6 0 10 -4 10 -10z m3710 -60 c0 -5 -4
-10 -10 -10 -5 0 -10 5 -10 10 0 6 5 10 10 10 6 0 10 -4 10 -10z m268 -2 c-2
-6 -39 -10 -91 -10 -134 1 -139 1 -133 11 8 13 228 12 224 -1z m1107 -17 c3
-5 1 -12 -5 -16 -5 -3 -10 1 -10 9 0 18 6 21 15 7z m665 -5 c0 -7 -22 -11 -60
-11 -42 0 -60 3 -60 12 0 9 18 12 60 12 38 -1 60 -5 60 -13z m-1372 -21 c5 -7
124 -11 345 -10 185 0 338 -2 338 -5 7 -27 2 -101 -7 -104 -6 -2 -10 -20 -9
-40 1 -22 -4 -37 -13 -41 -7 -3 -13 -15 -12 -27 4 -41 0 -59 -9 -53 -5 3 -9
-9 -9 -26 1 -17 -5 -35 -12 -39 -7 -5 -10 -17 -7 -30 3 -13 0 -23 -9 -27 -8
-3 -14 -14 -14 -24 0 -10 -4 -19 -10 -19 -5 0 -10 -13 -10 -29 0 -17 -4 -33
-10 -36 -5 -3 -10 -14 -10 -25 0 -10 -7 -20 -15 -24 -8 -3 -14 -9 -13 -13 4
-15 -35 -83 -48 -83 -7 0 -11 -8 -9 -19 2 -11 -3 -22 -10 -25 -8 -3 -12 -14
-10 -27 2 -12 2 -19 -1 -16 -8 8 -44 -25 -44 -41 0 -8 -13 -27 -30 -42 -16
-15 -30 -33 -30 -39 0 -14 -296 -311 -310 -311 -15 0 -40 -26 -40 -41 0 -7 -3
-9 -7 -6 -3 4 -15 0 -25 -10 -10 -9 -18 -12 -18 -8 0 4 -10 -3 -23 -16 -13
-13 -30 -25 -38 -27 -7 -2 -15 -8 -17 -13 -2 -5 -12 -9 -23 -9 -10 0 -19 -4
-19 -8 0 -13 -120 -72 -146 -72 -13 0 -24 -4 -24 -10 0 -5 -9 -10 -20 -10 -11
0 -20 -4 -20 -10 0 -5 -9 -10 -20 -10 -11 0 -20 -4 -20 -10 0 -5 -13 -10 -30
-10 -16 0 -30 -4 -30 -10 0 -5 -12 -10 -26 -10 -14 0 -32 -6 -40 -14 -8 -8
-24 -13 -36 -11 -12 3 -31 -1 -43 -8 -11 -7 -39 -13 -62 -12 -23 1 -44 -3 -46
-9 -3 -7 -32 -11 -76 -11 -47 0 -71 -3 -71 -11 0 -16 -336 -16 -349 0 -6 7
-38 11 -80 11 -46 -1 -71 3 -71 10 0 7 -18 11 -45 10 -26 -1 -49 3 -56 11 -5
7 -25 11 -44 10 -21 -2 -36 2 -39 10 -3 8 -19 14 -36 14 -16 0 -30 5 -30 10 0
6 -13 10 -30 10 -16 0 -30 5 -30 10 0 6 -12 10 -26 10 -14 0 -23 4 -19 10 3 6
1 10 -4 10 -19 0 -12 50 9 72 11 12 20 30 20 40 0 11 5 16 10 13 6 -3 10 1 10
9 0 9 9 31 20 51 11 20 20 42 20 50 0 8 5 15 10 15 6 0 10 8 10 18 0 10 9 24
20 32 11 8 20 22 20 31 0 9 7 19 15 23 8 3 14 9 13 13 -1 4 3 17 9 29 10 17 9
25 -3 42 -8 12 -11 22 -5 22 5 0 12 -6 14 -12 4 -10 8 -10 16 2 5 8 7 18 5 22
-3 4 2 8 10 8 9 0 16 9 16 20 0 11 5 20 11 20 5 0 7 5 4 10 -3 6 1 10 9 10 9
0 16 9 16 20 0 11 5 20 10 20 6 0 10 9 10 19 0 11 -4 23 -10 26 -5 3 -10 12
-10 18 0 7 6 4 14 -5 15 -20 26 -14 26 14 0 11 5 16 10 13 6 -3 10 5 10 18 0
14 6 27 14 30 8 3 22 22 32 43 14 29 15 40 6 55 -7 11 -8 19 -3 19 5 0 11 -5
13 -12 2 -6 10 -8 17 -4 9 6 9 13 -3 31 -9 13 -12 26 -7 29 5 3 12 -1 15 -10
3 -8 10 -12 16 -9 6 4 8 10 5 15 -3 5 0 14 7 22 7 7 14 20 16 28 2 7 12 21 23
31 10 9 19 24 19 33 0 9 5 16 10 16 14 0 12 38 -2 43 -8 2 -9 8 -4 13 5 5 11
4 13 -3 3 -7 9 -13 14 -13 14 0 11 38 -3 43 -8 2 -9 8 -4 13 5 5 11 4 13 -3 8
-23 23 -14 23 14 0 14 3 24 6 21 7 -8 54 36 54 51 0 6 8 11 17 11 9 0 13 3 10
6 -4 4 9 19 28 34 19 15 32 30 28 34 -3 3 1 6 10 6 10 0 17 3 17 8 0 8 49 32
67 32 7 0 13 3 13 8 0 8 48 32 66 32 6 0 15 7 18 16 3 9 13 14 20 11 8 -3 16
-1 18 4 2 6 19 12 38 13 20 1 43 7 52 12 24 13 717 12 726 -1z m1392 -21 c0
-8 -5 -12 -10 -9 -6 4 -8 11 -5 16 9 14 15 11 15 -7z m133 -67 c31 -31 57 -63
57 -72 0 -8 5 -15 10 -15 6 0 10 -9 10 -20 0 -11 5 -20 10 -20 6 0 10 5 10 11
0 5 5 7 11 3 8 -4 8 -9 0 -17 -14 -14 -15 -70 -1 -62 11 7 11 9 12 -148 1 -92
-2 -121 -13 -128 -11 -7 -10 -11 6 -24 13 -11 15 -15 5 -12 -11 3 -16 -2 -17
-16 -1 -11 -7 -23 -13 -27 -7 -4 -11 -23 -10 -41 3 -55 1 -71 -10 -64 -5 3
-10 -3 -10 -14 0 -11 -4 -23 -10 -26 -5 -3 -10 -19 -10 -35 0 -15 -6 -31 -12
-33 -10 -4 -9 -8 2 -17 11 -9 12 -13 3 -17 -7 -2 -13 -17 -13 -33 0 -16 -5
-30 -11 -32 -6 -2 -11 -16 -11 -31 0 -15 -4 -30 -9 -33 -5 -3 -9 -14 -9 -25 0
-11 -4 -17 -10 -14 -5 3 -10 -3 -10 -13 0 -11 -7 -25 -15 -32 -9 -7 -13 -21
-10 -31 4 -12 1 -21 -9 -25 -8 -3 -13 -14 -11 -25 2 -11 -2 -19 -10 -19 -8 0
-12 -6 -9 -14 3 -8 -6 -25 -20 -39 -14 -15 -26 -33 -26 -42 0 -8 -4 -15 -10
-15 -5 0 -10 -8 -10 -18 0 -10 -9 -24 -20 -32 -11 -8 -20 -21 -20 -30 0 -9 -9
-22 -20 -30 -11 -8 -20 -21 -20 -29 0 -8 -15 -28 -33 -45 -19 -17 -33 -39 -31
-48 1 -10 -1 -18 -5 -18 -13 0 -101 -87 -101 -100 0 -16 -173 -190 -189 -190
-7 0 -34 -22 -61 -50 -27 -27 -54 -50 -60 -50 -6 0 -29 -18 -50 -40 -21 -21
-44 -41 -51 -42 -8 -2 -24 -13 -36 -25 -12 -13 -29 -23 -37 -23 -9 0 -21 -9
-28 -20 -7 -11 -20 -20 -28 -20 -9 0 -22 -9 -30 -20 -8 -11 -22 -20 -32 -20
-10 0 -25 -11 -34 -24 -8 -14 -21 -23 -28 -20 -6 2 -21 -5 -33 -16 -12 -11
-27 -20 -32 -20 -6 0 -14 -8 -20 -17 -5 -10 -13 -15 -17 -11 -6 6 -22 -4 -81
-52 -7 -6 -21 -10 -33 -10 -11 0 -20 -4 -20 -10 0 -5 -9 -10 -20 -10 -11 0
-20 -4 -20 -10 0 -5 -9 -10 -20 -10 -11 0 -20 -4 -20 -10 0 -5 -9 -10 -20 -10
-11 0 -20 -4 -20 -10 0 -5 -9 -10 -20 -10 -11 0 -20 -4 -20 -10 0 -5 -9 -10
-20 -10 -11 0 -20 -4 -20 -10 0 -5 -9 -10 -20 -10 -11 0 -20 -4 -20 -10 0 -5
-9 -10 -20 -10 -11 0 -23 -6 -26 -13 -3 -9 -16 -12 -34 -9 -23 3 -30 0 -30
-12 0 -9 -6 -16 -12 -14 -7 1 -22 -3 -33 -9 -11 -6 -28 -9 -37 -8 -9 2 -19 -4
-22 -12 -3 -8 -10 -12 -15 -9 -5 4 -17 -1 -25 -10 -9 -9 -23 -14 -30 -11 -8 3
-22 -1 -33 -8 -10 -8 -28 -15 -40 -15 -12 0 -25 -4 -28 -10 -3 -5 -21 -10 -40
-10 -19 0 -37 -4 -40 -10 -3 -5 -24 -10 -46 -10 -24 0 -38 -4 -34 -10 4 -6
-15 -10 -49 -10 -31 0 -56 -4 -56 -10 0 -6 -26 -10 -58 -10 -32 0 -63 -5 -69
-11 -16 -16 -460 -16 -476 0 -6 6 -37 11 -69 11 -32 0 -58 4 -58 10 0 6 -22
10 -49 10 -34 0 -51 5 -55 15 -4 11 -12 13 -28 7 -27 -10 -58 -5 -58 9 0 5
-13 9 -29 9 -16 0 -31 6 -33 12 -3 7 -18 11 -38 10 -18 -1 -37 3 -41 9 -4 7
-23 12 -42 11 -19 -1 -40 5 -47 13 -6 7 -20 12 -31 10 -11 -2 -22 2 -25 10 -3
7 -14 12 -25 10 -11 -2 -19 2 -19 10 0 8 -8 12 -19 10 -12 -2 -23 5 -31 21 -8
13 -18 24 -24 23 -24 -3 -37 2 -31 11 3 6 2 10 -4 10 -15 0 -83 69 -77 79 3 5
-6 17 -19 27 -20 15 -25 28 -25 61 0 24 -4 43 -10 43 -5 0 -10 14 -10 30 0 17
-4 30 -10 30 -5 0 -10 9 -10 20 0 13 7 20 20 20 15 0 20 7 20 29 0 16 -6 31
-12 34 -10 4 -10 7 0 18 10 11 12 10 12 -4 0 -9 5 -17 10 -17 6 0 10 12 10 26
0 14 -4 23 -10 19 -11 -7 -14 8 -3 18 3 4 11 -1 18 -9 10 -14 14 -12 28 18 20
43 42 63 52 48 3 -5 0 -10 -7 -10 -18 0 -19 -70 -1 -88 7 -8 11 -18 7 -23 -3
-5 2 -12 11 -15 24 -9 78 45 64 63 -11 12 -5 17 14 14 4 -1 10 6 13 14 3 8 10
12 15 9 5 -3 9 2 9 10 0 9 -4 16 -10 16 -5 0 -10 5 -10 10 0 6 9 10 20 10 13
0 20 7 20 18 0 10 9 24 20 32 20 14 29 47 10 35 -5 -3 -10 -1 -10 4 0 14 17
14 25 1 3 -5 16 -10 29 -10 13 0 30 -8 38 -17 16 -20 17 -94 2 -115 -6 -7 -10
-49 -10 -92 1 -78 2 -80 28 -87 30 -8 38 -3 38 23 0 11 7 18 20 18 11 0 20 5
20 10 0 6 -4 10 -10 10 -18 0 -10 18 10 23 11 3 20 10 20 17 0 6 -5 8 -11 4
-7 -4 -10 -1 -7 7 3 8 10 15 16 15 25 3 27 5 12 14 -13 9 -13 11 0 19 8 5 18
7 22 5 4 -3 8 3 8 14 0 10 8 26 18 34 18 16 77 24 68 9 -3 -5 0 -11 7 -14 9
-3 13 -35 12 -121 -1 -93 2 -119 15 -130 29 -26 70 -24 70 4 0 11 5 20 10 20
6 0 10 14 10 30 0 17 5 30 10 30 6 0 10 7 10 16 0 8 6 22 14 30 8 7 12 23 9
34 -3 11 -1 20 5 20 6 0 12 10 14 23 5 35 55 30 76 -8 9 -16 20 -32 24 -35 3
-3 6 -38 6 -78 0 -42 4 -78 11 -85 6 -6 11 -23 11 -37 0 -22 4 -27 25 -26 25
2 55 41 55 71 0 7 4 15 9 17 6 2 11 23 12 48 2 25 7 48 13 52 7 5 7 11 -2 20
-6 6 -12 16 -12 22 0 5 3 7 6 3 4 -3 21 9 38 28 31 33 33 33 48 15 9 -10 14
-21 12 -24 -2 -3 -1 -4 3 -1 3 3 15 -2 25 -11 14 -13 15 -20 6 -31 -8 -10 -8
-17 0 -25 7 -7 12 -22 12 -34 0 -12 6 -25 13 -27 9 -4 9 -7 -1 -14 -9 -7 -7
-20 13 -58 19 -38 30 -50 50 -51 25 -1 30 8 25 50 -1 11 3 15 9 12 6 -4 11 -3
11 3 0 5 -5 13 -10 16 -8 5 -8 11 0 20 6 7 12 42 14 77 4 86 17 115 51 114 14
-1 30 -8 34 -15 7 -11 11 -10 18 4 7 12 13 14 17 6 4 -6 2 -11 -3 -11 -6 0
-11 -7 -11 -16 0 -8 5 -12 10 -9 6 3 10 -1 10 -10 0 -9 5 -13 10 -10 13 8 8
-18 -5 -27 -5 -4 1 -16 15 -28 20 -17 22 -23 10 -30 -12 -7 -10 -13 10 -30 20
-18 22 -23 10 -31 -13 -8 -13 -10 0 -18 8 -5 18 -7 22 -5 4 3 8 -6 8 -20 0
-19 4 -24 15 -19 9 3 14 8 11 10 -7 7 18 32 27 26 7 -4 8 18 8 172 1 80 15
105 61 105 28 0 39 15 16 23 -7 2 -10 8 -5 12 4 5 14 0 21 -11 8 -10 10 -20 5
-22 -17 -7 -9 -22 11 -22 17 0 19 -3 10 -19 -7 -14 -7 -22 1 -26 6 -4 8 -13 5
-20 -2 -7 2 -16 10 -19 8 -3 14 -15 14 -26 0 -11 5 -20 10 -20 6 0 10 -9 10
-20 0 -11 5 -20 10 -20 6 0 10 -9 10 -19 0 -15 9 -20 40 -23 23 -2 40 1 41 7
7 64 3 158 -7 162 -6 2 -11 29 -12 63 0 47 3 60 14 60 9 0 12 4 9 10 -4 6 8
10 29 10 20 0 36 -4 36 -10 0 -5 9 -10 20 -10 22 0 27 -15 8 -24 -10 -5 -10
-7 0 -12 6 -3 12 -12 12 -19 0 -8 7 -11 20 -8 20 5 29 -12 9 -19 -26 -9 67
-128 98 -124 10 2 18 9 18 17 0 8 3 16 7 19 14 11 18 69 5 82 -7 7 -12 30 -12
51 1 24 -3 37 -12 37 -8 0 -13 12 -13 29 0 17 -4 33 -10 36 -5 3 -10 11 -10
16 0 6 5 7 10 4 6 -3 10 1 10 9 0 9 -5 16 -11 16 -5 0 -7 5 -3 11 4 8 9 7 15
-2 7 -12 12 -12 29 -1 19 12 26 8 75 -43 30 -30 61 -55 69 -55 19 0 21 -17 4
-22 -16 -6 35 -58 57 -58 8 0 15 -4 15 -10 0 -5 7 -10 17 -10 9 0 13 3 10 6
-3 4 -1 16 4 27 16 30 17 80 2 95 -7 8 -11 17 -8 22 3 4 -2 11 -11 14 -11 4
-14 13 -10 30 4 16 1 26 -9 30 -11 4 -14 19 -13 56 l3 50 35 0 c35 -1 75 -21
63 -33 -3 -4 -1 -7 5 -7 6 0 37 -27 69 -60 72 -75 103 -84 125 -35 13 30 13
37 1 55 -8 11 -11 25 -8 30 3 6 -1 10 -9 10 -9 0 -16 9 -16 20 0 11 -4 20 -10
20 -5 0 -10 9 -10 20 0 11 -9 25 -20 32 -11 7 -20 23 -20 35 0 13 -5 23 -12
23 -9 0 -9 3 0 12 15 15 16 32 2 23 -5 -3 -10 1 -10 9 0 21 10 20 26 -1 13
-17 13 -17 14 0 0 10 8 17 18 17 10 0 23 5 29 11 8 8 13 8 17 0 4 -6 0 -11 -8
-11 -9 0 -16 -4 -16 -10 0 -9 16 -14 23 -7 1 1 16 -10 32 -25 26 -25 30 -26
41 -10 8 9 14 13 14 8 0 -5 -7 -18 -17 -28 -15 -17 -15 -18 0 -18 10 0 17 -4
17 -10 0 -5 9 -10 19 -10 11 0 26 -9 34 -20 10 -14 24 -19 50 -18 31 1 37 5
38 25 1 12 1 34 2 47 1 15 -11 35 -31 54 -18 17 -32 36 -32 44 0 7 -9 20 -20
28 -11 8 -20 20 -20 28 0 7 -7 20 -15 29 -8 8 -13 19 -10 24 4 5 1 9 -4 9 -6
0 -11 5 -11 10 0 6 27 10 60 10 35 0 60 -4 60 -10 0 -7 7 -7 21 0 11 7 23 9
26 6 3 -3 -2 -8 -11 -12 -9 -3 -16 -10 -16 -16 0 -5 4 -7 8 -4 11 7 64 -29 55
-37 -3 -4 5 -7 19 -7 15 0 28 6 31 13 2 7 8 8 13 3 5 -5 4 -11 -3 -13 -20 -7
-15 -23 7 -23 11 0 20 5 20 10 0 6 7 10 16 10 9 0 25 10 35 21 18 21 18 22
-16 56 -19 19 -35 40 -35 46 0 6 -3 8 -6 4 -8 -7 -34 17 -34 32 0 6 -4 11 -10
11 -5 0 -10 7 -10 15 0 8 -12 26 -27 41 -24 24 -25 28 -10 39 9 7 14 14 11 17
-2 3 7 8 21 10 15 3 32 0 40 -8 7 -8 21 -14 29 -14 9 0 16 -4 16 -10 0 -5 14
-10 30 -10 17 0 30 -4 30 -10 0 -5 8 -10 19 -10 10 0 24 -6 30 -14 12 -14 61
-10 61 5 0 5 9 9 20 9 37 0 24 44 -30 99 -27 28 -53 50 -57 49 -13 -4 -83 69
-83 87 0 8 -4 15 -10 15 -5 0 -10 7 -10 16 0 20 29 49 38 39 4 -4 1 -10 -5
-12 -7 -3 -13 -9 -13 -14 0 -14 37 -11 44 4 5 10 7 10 12 0 3 -7 21 -13 40
-13 21 0 33 -4 29 -10 -4 -6 8 -10 29 -10 19 0 36 -5 38 -11 2 -5 27 -10 56
-11 42 0 57 5 72 21 10 12 17 28 16 35 -2 15 -36 51 -47 51 -5 0 -19 9 -31 20
-13 10 -25 18 -26 16 -2 -2 -17 10 -33 25 -16 15 -31 25 -35 22 -7 -8 -42 25
-37 35 2 4 -4 7 -14 7 -14 0 -11 7 15 31 29 27 38 30 70 25 20 -4 54 -9 75
-12 20 -4 37 -11 37 -18 0 -7 18 -11 47 -11 58 0 81 19 81 69 0 29 -4 36 -19
36 -10 0 -19 5 -19 10 0 6 -7 10 -16 10 -9 0 -27 12 -40 26 -13 14 -29 22 -34
19 -6 -3 -13 1 -16 9 -3 9 -11 13 -17 9 -5 -3 -16 2 -23 12 -7 10 -20 15 -29
12 -12 -5 -15 1 -15 27 0 19 -6 36 -12 38 -9 3 -7 10 6 24 14 13 21 15 24 6 2
-8 26 -12 68 -12 36 0 64 -4 64 -10 0 -6 30 -10 70 -10 63 0 70 2 70 20 0 11
5 20 10 20 6 0 10 14 10 30 0 23 -4 30 -20 30 -11 0 -20 6 -20 14 0 9 -7 13
-20 11 -12 -2 -20 2 -20 10 0 8 -6 12 -14 9 -8 -3 -28 2 -45 11 -17 8 -31 12
-31 8 0 -5 -5 0 -11 10 -5 9 -17 17 -25 17 -16 0 -44 23 -44 36 0 4 7 16 17
26 14 15 32 18 125 18 65 0 108 4 108 10 0 6 9 10 20 10 13 0 20 7 20 19 0 10
7 21 15 25 8 3 15 9 14 13 -8 49 38 36 104 -30z m-193 -18 c0 -12 -77 -12 -85
0 -3 5 9 11 27 13 38 4 58 -1 58 -13z m-4625 1 c-3 -5 -19 -10 -36 -10 -16 0
-29 5 -29 10 0 6 16 10 36 10 21 0 33 -4 29 -10z m-1252 -139 c5 -1 6 -5 3
-10 -5 -7 -21 -8 -61 -2 -5 1 -4 5 4 10 7 5 21 7 30 6 9 -2 20 -4 24 -4z
m7124 -8 c3 -9 -8 -10 -35 -4 -2 1 0 6 3 12 8 12 27 7 32 -8z m-6937 -19 c0
-8 -5 -12 -10 -9 -6 4 -8 11 -5 16 9 14 15 11 15 -7z m960 -104 c0 -5 -4 -10
-10 -10 -5 0 -10 5 -10 10 0 6 5 10 10 10 6 0 10 -4 10 -10z m4630 0 c0 -5 -4
-10 -10 -10 -5 0 -10 5 -10 10 0 6 5 10 10 10 6 0 10 -4 10 -10z m-4460 -250
c0 -5 -4 -10 -10 -10 -5 0 -10 5 -10 10 0 6 5 10 10 10 6 0 10 -4 10 -10z
m4310 0 c0 -5 -4 -10 -10 -10 -5 0 -10 5 -10 10 0 6 5 10 10 10 6 0 10 -4 10
-10z m-5475 -20 c3 -5 -1 -10 -9 -10 -9 0 -16 5 -16 10 0 6 4 10 9 10 6 0 13
-4 16 -10z m1065 6 c0 -11 -19 -15 -25 -6 -3 5 1 10 9 10 9 0 16 -2 16 -4z
m4515 -6 c3 -5 2 -10 -4 -10 -5 0 -13 5 -16 10 -3 6 -2 10 4 10 5 0 13 -4 16
-10z m955 1 c0 -6 -4 -12 -8 -15 -5 -3 -9 1 -9 9 0 8 4 15 9 15 4 0 8 -4 8 -9z
m45 -1 c3 -5 -1 -10 -10 -10 -9 0 -13 5 -10 10 3 6 8 10 10 10 2 0 7 -4 10
-10z m245 -25 c0 -8 -2 -15 -4 -15 -2 0 -6 7 -10 15 -3 8 -1 15 4 15 6 0 10
-7 10 -15z m-4010 -335 c0 -5 -7 -7 -15 -4 -8 4 -12 10 -9 15 6 11 24 2 24
-11z m-2675 -9 c3 -5 1 -12 -5 -16 -5 -3 -10 1 -10 9 0 18 6 21 15 7z m117
-13 c-7 -7 -12 -8 -12 -2 0 14 12 26 19 19 2 -3 -1 -11 -7 -17z m-226 -25
c-10 -10 -19 5 -10 18 6 11 8 11 12 0 2 -7 1 -15 -2 -18z m-96 -13 c0 -5 -4
-10 -10 -10 -5 0 -10 5 -10 10 0 6 5 10 10 10 6 0 10 -4 10 -10z m1580 0 c0
-5 -2 -10 -4 -10 -3 0 -8 5 -11 10 -3 6 -1 10 4 10 6 0 11 -4 11 -10z m1190
-119 c0 -6 -4 -13 -10 -16 -5 -3 -10 1 -10 9 0 9 5 16 10 16 6 0 10 -4 10 -9z
m-20 -46 c0 -8 -4 -15 -10 -15 -5 0 -10 7 -10 15 0 8 5 15 10 15 6 0 10 -7 10
-15z m-1020 -46 c0 -5 -4 -9 -10 -9 -5 0 -10 7 -10 16 0 8 5 12 10 9 6 -3 10
-10 10 -16z m-100 -59 c0 -5 -7 -10 -15 -10 -8 0 -15 5 -15 10 0 6 7 10 15 10
8 0 15 -4 15 -10z m-1235 -40 c-3 -5 -11 -10 -16 -10 -6 0 -7 5 -4 10 3 6 11
10 16 10 6 0 7 -4 4 -10z m5955 0 c0 -5 -4 -10 -10 -10 -5 0 -10 5 -10 10 0 6
5 10 10 10 6 0 10 -4 10 -10z m-6020 -20 c0 -5 -4 -10 -10 -10 -5 0 -10 5 -10
10 0 6 5 10 10 10 6 0 10 -4 10 -10z m2335 0 c-3 -5 -11 -10 -16 -10 -6 0 -7
5 -4 10 3 6 11 10 16 10 6 0 7 -4 4 -10z m3565 0 c0 -5 -4 -10 -10 -10 -5 0
-10 5 -10 10 0 6 5 10 10 10 6 0 10 -4 10 -10z m190 0 c0 -5 -4 -10 -10 -10
-5 0 -10 5 -10 10 0 6 5 10 10 10 6 0 10 -4 10 -10z m-6150 -20 c0 -5 -4 -10
-10 -10 -5 0 -10 5 -10 10 0 6 5 10 10 10 6 0 10 -4 10 -10z m-60 -20 c0 -5
-4 -10 -10 -10 -5 0 -10 5 -10 10 0 6 5 10 10 10 6 0 10 -4 10 -10z m4435
-170 c3 -5 2 -10 -4 -10 -5 0 -13 5 -16 10 -3 6 -2 10 4 10 5 0 13 -4 16 -10z
m1500 -100 c3 -5 -1 -10 -10 -10 -9 0 -13 5 -10 10 3 6 8 10 10 10 2 0 7 -4
10 -10z m-5625 -51 c0 -6 -4 -7 -10 -4 -5 3 -10 11 -10 16 0 6 5 7 10 4 6 -3
10 -11 10 -16z m1440 -24 c0 -8 -4 -17 -10 -20 -6 -4 -10 5 -10 20 0 15 4 24
10 20 6 -3 10 -12 10 -20z m2520 -5 c0 -5 -5 -10 -11 -10 -5 0 -7 5 -4 10 3 6
8 10 11 10 2 0 4 -4 4 -10z m-2070 -50 c0 -5 -2 -10 -4 -10 -3 0 -8 5 -11 10
-3 6 -1 10 4 10 6 0 11 -4 11 -10z m215 0 c3 -5 2 -10 -4 -10 -5 0 -13 5 -16
10 -3 6 -2 10 4 10 5 0 13 -4 16 -10z m1520 0 c3 -5 2 -10 -4 -10 -5 0 -13 5
-16 10 -3 6 -2 10 4 10 5 0 13 -4 16 -10z m2265 0 c0 -5 -2 -10 -4 -10 -3 0
-8 5 -11 10 -3 6 -1 10 4 10 6 0 11 -4 11 -10z m-3746 -15 c3 -9 0 -15 -9 -15
-9 0 -12 6 -9 15 4 8 7 15 9 15 2 0 5 -7 9 -15z m186 -65 c0 -5 -4 -10 -10
-10 -5 0 -10 5 -10 10 0 6 5 10 10 10 6 0 10 -4 10 -10z m-1875 -79 c3 -5 1
-12 -5 -16 -5 -3 -10 1 -10 9 0 18 6 21 15 7z m2209 0 c3 -5 -1 -11 -9 -14 -9
-4 -12 -1 -8 9 6 16 10 17 17 5z m2796 -72 c0 -6 -4 -7 -10 -4 -5 3 -10 11
-10 16 0 6 5 7 10 4 6 -3 10 -11 10 -16z m-5230 -19 c0 -5 -4 -10 -10 -10 -5
0 -10 5 -10 10 0 6 5 10 10 10 6 0 10 -4 10 -10z m-105 -60 c3 -5 -1 -10 -10
-10 -9 0 -13 5 -10 10 3 6 8 10 10 10 2 0 7 -4 10 -10z m5500 -20 c-3 -5 -11
-10 -16 -10 -6 0 -7 5 -4 10 3 6 11 10 16 10 6 0 7 -4 4 -10z m-5580 -20 c-3
-5 -10 -10 -16 -10 -5 0 -9 5 -9 10 0 6 7 10 16 10 8 0 12 -4 9 -10z m5625 0
c0 -5 -4 -10 -10 -10 -5 0 -10 5 -10 10 0 6 5 10 10 10 6 0 10 -4 10 -10z
m-698 -88 c-7 -2 -12 -10 -12 -18 0 -9 -4 -12 -10 -9 -6 4 -5 13 2 25 7 10 17
16 22 13 6 -4 5 -8 -2 -11z m153 -43 c-10 -15 -25 -10 -19 6 4 8 10 12 15 9 5
-3 7 -10 4 -15z m-4585 -39 c0 -5 -4 -10 -10 -10 -5 0 -10 5 -10 10 0 6 5 10
10 10 6 0 10 -4 10 -10z m4770 -100 c0 -5 -4 -10 -10 -10 -5 0 -10 5 -10 10 0
6 5 10 10 10 6 0 10 -4 10 -10z m-4980 -46 c0 -8 -5 -12 -10 -9 -6 4 -8 11 -5
16 9 14 15 11 15 -7z m650 7 c0 -6 -4 -13 -10 -16 -5 -3 -10 1 -10 9 0 9 5 16
10 16 6 0 10 -4 10 -9z m3687 -3 c-2 -7 -10 -12 -16 -10 -6 1 -11 -5 -11 -14
0 -8 -5 -12 -11 -9 -7 5 -4 14 7 26 19 21 38 25 31 7z m707 -3 c-4 -8 -10 -12
-15 -9 -11 6 -2 24 11 24 5 0 7 -7 4 -15z m-4019 -185 c-3 -5 -10 -10 -16 -10
-5 0 -9 5 -9 10 0 6 7 10 16 10 8 0 12 -4 9 -10z m-145 -119 c0 -6 -4 -13 -10
-16 -5 -3 -10 1 -10 9 0 9 5 16 10 16 6 0 10 -4 10 -9z m430 -71 c0 -5 -4 -10
-10 -10 -5 0 -10 5 -10 10 0 6 5 10 10 10 6 0 10 -4 10 -10z m-515 -40 c3 -5
2 -10 -4 -10 -5 0 -13 5 -16 10 -3 6 -2 10 4 10 5 0 13 -4 16 -10z m2480 -40
c3 -5 -1 -10 -9 -10 -9 0 -16 5 -16 10 0 6 4 10 9 10 6 0 13 -4 16 -10z
m-1460 -20 c3 -5 -1 -10 -9 -10 -9 0 -16 5 -16 10 0 6 4 10 9 10 6 0 13 -4 16
-10z m2000 0 c3 -5 -1 -10 -10 -10 -9 0 -13 5 -10 10 3 6 8 10 10 10 2 0 7 -4
10 -10z m-3145 -20 c0 -5 -4 -10 -10 -10 -5 0 -10 5 -10 10 0 6 5 10 10 10 6
0 10 -4 10 -10z m3730 -6 c0 -8 -4 -12 -10 -9 -5 3 -10 10 -10 16 0 5 5 9 10
9 6 0 10 -7 10 -16z m-1500 -25 c0 -6 -4 -7 -10 -4 -5 3 -10 11 -10 16 0 6 5
7 10 4 6 -3 10 -11 10 -16z m-697 -22 c4 3 7 -1 7 -10 0 -9 -3 -17 -6 -17 -9
0 -33 33 -33 45 0 6 6 2 13 -7 7 -10 16 -15 19 -11z m337 5 c0 -9 -6 -12 -16
-8 -9 3 -18 6 -20 6 -3 0 -3 4 0 8 9 14 36 10 36 -6z m460 -42 c0 -5 -4 -10
-10 -10 -5 0 -10 5 -10 10 0 6 5 10 10 10 6 0 10 -4 10 -10z m-955 -40 c3 -5
2 -10 -4 -10 -5 0 -13 5 -16 10 -3 6 -2 10 4 10 5 0 13 -4 16 -10z m-915 -40
c0 -5 -4 -10 -10 -10 -5 0 -10 5 -10 10 0 6 5 10 10 10 6 0 10 -4 10 -10z
m1915 -40 c3 -5 2 -10 -4 -10 -5 0 -13 5 -16 10 -3 6 -2 10 4 10 5 0 13 -4 16
-10z m25 -64 c0 -11 -19 -15 -25 -6 -3 5 1 10 9 10 9 0 16 -2 16 -4z m475 -66
c3 -5 -1 -10 -9 -10 -9 0 -16 5 -16 10 0 6 4 10 9 10 6 0 13 -4 16 -10z m85 0
c0 -5 -4 -10 -10 -10 -5 0 -10 5 -10 10 0 6 5 10 10 10 6 0 10 -4 10 -10z"/>
<path d="M5990 5250 c0 -5 5 -10 10 -10 6 0 10 5 10 10 0 6 -4 10 -10 10 -5 0
-10 -4 -10 -10z"/>
<path d="M6160 3441 c0 -6 5 -13 10 -16 6 -3 10 1 10 9 0 9 -4 16 -10 16 -5 0
-10 -4 -10 -9z"/>
<path d="M5559 7787 c7 -7 14 -8 21 -1 6 6 2 10 -12 11 -16 2 -18 -1 -9 -10z"/>
<path d="M2390 7750 c-13 -8 -12 -10 3 -10 9 0 17 5 17 10 0 12 -1 12 -20 0z"/>
<path d="M5660 7749 c0 -5 5 -7 10 -4 6 3 10 8 10 11 0 2 -4 4 -10 4 -5 0 -10
-5 -10 -11z"/>
<path d="M5700 7737 c0 -8 7 -14 15 -14 11 0 12 4 4 14 -6 7 -13 13 -15 13 -2
0 -4 -6 -4 -13z"/>
<path d="M2340 7736 c0 -2 7 -6 15 -10 8 -3 15 -1 15 4 0 6 -7 10 -15 10 -8 0
-15 -2 -15 -4z"/>
<path d="M2305 7710 c4 -6 11 -8 16 -5 14 9 11 15 -7 15 -8 0 -12 -5 -9 -10z"/>
<path d="M5740 7709 c0 -11 27 -12 34 -1 2 4 -4 9 -15 9 -10 1 -19 -2 -19 -8z"/>
<path d="M2275 7700 c-4 -6 -12 -7 -18 -3 -7 4 -6 -1 2 -10 15 -19 24 -16 27
8 3 17 -2 19 -11 5z"/>
<path d="M5784 7689 c-5 -9 -2 -10 9 -6 8 3 21 -1 27 -9 14 -16 30 -19 30 -5
0 5 -8 11 -17 15 -10 3 -23 8 -30 12 -6 3 -15 0 -19 -7z"/>
<path d="M2220 7664 c0 -8 5 -12 10 -9 6 4 8 11 5 16 -9 14 -15 11 -15 -7z"/>
<path d="M2191 7661 c-8 -5 -9 -11 -3 -15 5 -3 12 1 16 9 6 17 6 18 -13 6z"/>
<path d="M5870 7648 c0 -11 12 -10 30 2 12 7 10 9 -8 7 -12 0 -22 -5 -22 -9z"/>
<path d="M2140 7631 c0 -5 5 -13 10 -16 6 -3 10 -2 10 4 0 5 -4 13 -10 16 -5
3 -10 2 -10 -4z"/>
<path d="M5910 7631 c0 -6 5 -13 10 -16 6 -3 10 1 10 9 0 9 -4 16 -10 16 -5 0
-10 -4 -10 -9z"/>
<path d="M2100 7611 c0 -5 5 -13 10 -16 6 -3 10 -2 10 4 0 5 -4 13 -10 16 -5
3 -10 2 -10 -4z"/>
<path d="M5955 7611 c-3 -5 -1 -12 5 -16 5 -3 10 1 10 9 0 18 -6 21 -15 7z"/>
<path d="M5995 7590 c-3 -5 -1 -10 4 -10 6 0 11 5 11 10 0 6 -2 10 -4 10 -3 0
-8 -4 -11 -10z"/>
<path d="M2050 7579 c0 -5 5 -7 10 -4 6 3 10 8 10 11 0 2 -4 4 -10 4 -5 0 -10
-5 -10 -11z"/>
<path d="M2008 7556 c-19 -14 -23 -26 -10 -26 4 0 13 9 20 20 14 23 13 24 -10
6z"/>
<path d="M6049 7552 c7 -12 17 -20 22 -16 6 3 9 7 7 8 -2 1 -12 8 -22 16 -18
14 -19 14 -7 -8z"/>
<path d="M1950 7519 c0 -5 5 -7 10 -4 6 3 10 8 10 11 0 2 -4 4 -10 4 -5 0 -10
-5 -10 -11z"/>
<path d="M6100 7520 c0 -5 5 -10 10 -10 6 0 10 5 10 10 0 6 -4 10 -10 10 -5 0
-10 -4 -10 -10z"/>
<path d="M6150 7503 c0 -15 19 -37 26 -31 3 4 -1 14 -10 23 -9 9 -16 13 -16 8z"/>
<path d="M1885 7480 c-3 -5 1 -10 9 -10 9 0 16 5 16 10 0 6 -4 10 -9 10 -6 0
-13 -4 -16 -10z"/>
<path d="M1825 7440 c-3 -5 1 -10 9 -10 9 0 16 5 16 10 0 6 -4 10 -9 10 -6 0
-13 -4 -16 -10z"/>
<path d="M6225 7440 c-3 -5 1 -10 10 -10 9 0 13 5 10 10 -3 6 -8 10 -10 10 -2
0 -7 -4 -10 -10z"/>
<path d="M1776 7409 c-22 -22 -10 -25 17 -5 10 8 15 16 10 19 -4 2 -17 -4 -27
-14z"/>
<path d="M6280 7400 c0 -5 7 -10 16 -10 8 0 12 5 9 10 -3 6 -10 10 -16 10 -5
0 -9 -4 -9 -10z"/>
<path d="M1725 7381 c-3 -5 -2 -12 3 -15 5 -3 9 1 9 9 0 17 -3 19 -12 6z"/>
<path d="M6330 7380 c0 -5 5 -10 10 -10 6 0 10 5 10 10 0 6 -4 10 -10 10 -5 0
-10 -4 -10 -10z"/>
<path d="M1700 7361 c0 -5 5 -13 10 -16 6 -3 10 -2 10 4 0 5 -4 13 -10 16 -5
3 -10 2 -10 -4z"/>
<path d="M6350 7356 c0 -2 7 -7 16 -10 8 -3 12 -2 9 4 -6 10 -25 14 -25 6z"/>
<path d="M6410 7323 c0 -12 38 -48 44 -42 3 2 -6 15 -20 28 -13 13 -24 19 -24
14z"/>
<path d="M1640 7311 c0 -5 -8 -11 -17 -13 -12 -2 -14 -6 -7 -10 6 -4 19 1 29
12 10 12 13 20 7 20 -7 0 -12 -4 -12 -9z"/>
<path d="M1555 7250 c3 -5 8 -10 11 -10 2 0 4 5 4 10 0 6 -5 10 -11 10 -5 0
-7 -4 -4 -10z"/>
<path d="M6502 7240 c12 -19 28 -27 28 -14 0 7 -27 34 -34 34 -4 0 -1 -9 6
-20z"/>
<path d="M1535 7230 c3 -5 11 -10 16 -10 6 0 7 5 4 10 -3 6 -11 10 -16 10 -6
0 -7 -4 -4 -10z"/>
<path d="M6610 7162 c13 -19 29 -36 36 -39 8 -3 14 -12 14 -20 0 -8 4 -11 10
-8 10 6 -9 45 -23 45 -4 0 -19 12 -33 28 l-26 27 22 -33z"/>
<path d="M1431 7150 c-13 -10 -21 -23 -19 -27 1 -5 16 4 31 19 32 32 22 38
-12 8z"/>
<path d="M1304 7038 l-19 -23 23 19 c21 18 27 26 19 26 -2 0 -12 -10 -23 -22z"/>
<path d="M1270 6999 c0 -5 5 -7 10 -4 6 3 10 8 10 11 0 2 -4 4 -10 4 -5 0 -10
-5 -10 -11z"/>
<path d="M6790 6999 c0 -5 5 -7 10 -4 6 3 10 8 10 11 0 2 -4 4 -10 4 -5 0 -10
-5 -10 -11z"/>
<path d="M1245 6980 c3 -5 8 -10 11 -10 2 0 4 5 4 10 0 6 -5 10 -11 10 -5 0
-7 -4 -4 -10z"/>
<path d="M6805 6980 c-3 -5 1 -10 10 -10 9 0 13 5 10 10 -3 6 -8 10 -10 10 -2
0 -7 -4 -10 -10z"/>
<path d="M1213 6956 c-16 -19 -4 -29 13 -11 8 7 14 16 14 19 0 10 -15 6 -27
-8z"/>
<path d="M6835 6960 c-3 -5 -1 -10 4 -10 6 0 11 5 11 10 0 6 -2 10 -4 10 -3 0
-8 -4 -11 -10z"/>
<path d="M6855 6940 c-3 -5 -1 -10 4 -10 6 0 11 5 11 10 0 6 -2 10 -4 10 -3 0
-8 -4 -11 -10z"/>
<path d="M1180 6920 c0 -5 5 -10 11 -10 5 0 7 5 4 10 -3 6 -8 10 -11 10 -2 0
-4 -4 -4 -10z"/>
<path d="M1152 6889 c-14 -22 -7 -25 14 -5 8 8 11 17 6 20 -4 2 -13 -4 -20
-15z"/>
<path d="M6890 6900 c0 -5 5 -10 10 -10 6 0 10 5 10 10 0 6 -4 10 -10 10 -5 0
-10 -4 -10 -10z"/>
<path d="M6915 6880 c-3 -5 -1 -10 4 -10 6 0 11 5 11 10 0 6 -2 10 -4 10 -3 0
-8 -4 -11 -10z"/>
<path d="M1112 6850 c-6 -11 -12 -23 -12 -27 0 -5 5 0 11 10 6 9 14 15 20 12
5 -3 6 1 3 9 -8 20 -7 20 -22 -4z"/>
<path d="M6950 6840 c0 -5 5 -10 10 -10 6 0 10 5 10 10 0 6 -4 10 -10 10 -5 0
-10 -4 -10 -10z"/>
<path d="M1070 6805 c-8 -9 -8 -15 -2 -15 12 0 26 19 19 26 -2 2 -10 -2 -17
-11z"/>
<path d="M7060 6712 c0 -10 28 -35 50 -46 8 -4 6 0 -4 8 -11 9 -16 16 -12 16
5 0 3 7 -4 15 -14 16 -30 20 -30 7z"/>
<path d="M961 6684 c-18 -21 -6 -30 14 -11 8 9 15 18 15 21 0 11 -15 5 -29
-10z"/>
<path d="M870 6566 c0 -9 5 -16 10 -16 6 0 10 4 10 9 0 6 -4 13 -10 16 -5 3
-10 -1 -10 -9z"/>
<path d="M7175 6560 c4 -6 11 -8 16 -5 14 9 11 15 -7 15 -8 0 -12 -5 -9 -10z"/>
<path d="M850 6540 c0 -5 5 -10 11 -10 5 0 7 5 4 10 -3 6 -8 10 -11 10 -2 0
-4 -4 -4 -10z"/>
<path d="M7205 6540 c-3 -6 1 -7 9 -4 18 7 21 14 7 14 -6 0 -13 -4 -16 -10z"/>
<path d="M7246 6485 c-3 -8 -1 -15 4 -15 13 0 22 18 11 24 -5 3 -11 -1 -15 -9z"/>
<path d="M805 6480 c-3 -5 -2 -10 4 -10 5 0 13 5 16 10 3 6 2 10 -4 10 -5 0
-13 -4 -16 -10z"/>
<path d="M780 6460 c0 -6 7 -10 15 -10 8 0 15 2 15 4 0 2 -7 6 -15 10 -8 3
-15 1 -15 -4z"/>
<path d="M7270 6460 c0 -5 5 -10 11 -10 5 0 7 5 4 10 -3 6 -8 10 -11 10 -2 0
-4 -4 -4 -10z"/>
<path d="M737 6394 c-20 -27 -14 -32 10 -9 8 8 13 19 11 24 -2 5 -11 -2 -21
-15z"/>
<path d="M7305 6400 c-3 -5 -1 -10 4 -10 6 0 11 5 11 10 0 6 -2 10 -4 10 -3 0
-8 -4 -11 -10z"/>
<path d="M7330 6380 c0 -5 5 -10 11 -10 5 0 7 5 4 10 -3 6 -8 10 -11 10 -2 0
-4 -4 -4 -10z"/>
<path d="M700 6336 c0 -9 -4 -14 -10 -11 -5 3 -10 1 -10 -4 0 -13 10 -14 30
-1 12 7 12 12 2 22 -9 9 -12 8 -12 -6z"/>
<path d="M7350 6342 c0 -7 7 -20 15 -28 19 -20 20 -4 0 22 -9 12 -14 14 -15 6z"/>
<path d="M7396 6281 c-4 -7 -5 -15 -2 -18 9 -9 19 4 14 18 -4 11 -6 11 -12 0z"/>
<path d="M620 6218 c0 -10 -8 -18 -17 -19 -10 0 -13 -3 -6 -5 21 -9 43 9 33
26 -8 13 -10 12 -10 -2z"/>
<path d="M7430 6210 c0 -5 5 -10 10 -10 6 0 10 5 10 10 0 6 -4 10 -10 10 -5 0
-10 -4 -10 -10z"/>
<path d="M581 6151 c-8 -6 -9 -11 -3 -15 6 -3 14 -1 17 5 9 14 2 20 -14 10z"/>
<path d="M7475 6150 c-3 -5 1 -10 10 -10 9 0 13 5 10 10 -3 6 -8 10 -10 10 -2
0 -7 -4 -10 -10z"/>
<path d="M549 6098 c-12 -23 -12 -23 10 -4 23 21 26 26 11 26 -5 0 -15 -10
-21 -22z"/>
<path d="M7495 6111 c-3 -5 -1 -12 5 -16 5 -3 10 1 10 9 0 18 -6 21 -15 7z"/>
<path d="M510 6040 c0 -5 4 -10 9 -10 6 0 13 5 16 10 3 6 -1 10 -9 10 -9 0
-16 -4 -16 -10z"/>
<path d="M7540 6039 c0 -5 5 -7 10 -4 6 3 10 8 10 11 0 2 -4 4 -10 4 -5 0 -10
-5 -10 -11z"/>
<path d="M7561 6004 c0 -11 3 -14 6 -6 3 7 2 16 -1 19 -3 4 -6 -2 -5 -13z"/>
<path d="M490 6000 c0 -5 5 -10 10 -10 6 0 10 5 10 10 0 6 -4 10 -10 10 -5 0
-10 -4 -10 -10z"/>
<path d="M470 5960 c0 -5 5 -10 10 -10 6 0 10 5 10 10 0 6 -4 10 -10 10 -5 0
-10 -4 -10 -10z"/>
<path d="M7575 5960 c3 -5 10 -10 16 -10 5 0 9 5 9 10 0 6 -7 10 -16 10 -8 0
-12 -4 -9 -10z"/>
<path d="M453 5933 c4 -3 2 -12 -5 -20 -8 -11 -7 -12 6 -7 18 7 22 34 4 34 -6
0 -8 -3 -5 -7z"/>
<path d="M7600 5921 c0 -6 5 -13 10 -16 6 -3 10 1 10 9 0 9 -4 16 -10 16 -5 0
-10 -4 -10 -9z"/>
<path d="M430 5880 c0 -5 5 -10 10 -10 6 0 10 5 10 10 0 6 -4 10 -10 10 -5 0
-10 -4 -10 -10z"/>
<path d="M7620 5884 c0 -6 6 -17 14 -24 8 -6 12 -19 9 -27 -4 -11 -2 -14 5 -9
7 4 12 10 12 14 -1 12 -40 57 -40 46z"/>
<path d="M417 5854 c-4 -4 -7 -14 -7 -23 0 -11 3 -12 11 -4 6 6 10 16 7 23 -2
6 -7 8 -11 4z"/>
<path d="M390 5794 c0 -8 5 -12 10 -9 6 3 10 10 10 16 0 5 -4 9 -10 9 -5 0
-10 -7 -10 -16z"/>
<path d="M7660 5795 c0 -8 4 -15 8 -15 5 0 9 7 9 15 0 8 -4 15 -9 15 -4 0 -8
-7 -8 -15z"/>
<path d="M370 5754 c0 -8 5 -12 10 -9 6 3 10 10 10 16 0 5 -4 9 -10 9 -5 0
-10 -7 -10 -16z"/>
<path d="M7687 5763 c-4 -3 -7 -11 -7 -17 0 -6 5 -5 12 2 6 6 9 14 7 17 -3 3
-9 2 -12 -2z"/>
<path d="M7703 5715 c0 -8 4 -15 9 -15 4 0 8 4 8 9 0 6 -4 12 -8 15 -5 3 -9
-1 -9 -9z"/>
<path d="M350 5710 c0 -5 5 -10 11 -10 5 0 7 5 4 10 -3 6 -8 10 -11 10 -2 0
-4 -4 -4 -10z"/>
<path d="M306 5614 c-8 -22 -8 -24 7 -18 8 3 14 11 14 19 0 20 -13 19 -21 -1z"/>
<path d="M7740 5625 c0 -15 18 -40 24 -34 3 3 -1 14 -9 25 -8 10 -14 15 -15 9z"/>
<path d="M285 5560 c3 -5 8 -10 11 -10 2 0 4 5 4 10 0 6 -5 10 -11 10 -5 0 -7
-4 -4 -10z"/>
<path d="M7760 5566 c0 -2 7 -7 16 -10 8 -3 12 -2 9 4 -6 10 -25 14 -25 6z"/>
<path d="M264 5513 c2 -10 6 -17 10 -16 15 3 16 11 2 22 -12 10 -14 9 -12 -6z"/>
<path d="M7787 5511 c3 -12 9 -21 14 -21 14 0 11 16 -5 29 -12 10 -13 8 -9 -8z"/>
<path d="M220 5400 c0 -5 5 -10 11 -10 5 0 7 5 4 10 -3 6 -8 10 -11 10 -2 0
-4 -4 -4 -10z"/>
<path d="M7830 5399 c0 -5 5 -7 10 -4 6 3 10 8 10 11 0 2 -4 4 -10 4 -5 0 -10
-5 -10 -11z"/>
<path d="M206 5337 c3 -10 9 -15 12 -12 3 3 0 11 -7 18 -10 9 -11 8 -5 -6z"/>
<path d="M7850 5340 c0 -5 5 -10 11 -10 5 0 7 5 4 10 -3 6 -8 10 -11 10 -2 0
-4 -4 -4 -10z"/>
<path d="M180 5280 c0 -5 5 -10 11 -10 5 0 7 5 4 10 -3 6 -8 10 -11 10 -2 0
-4 -4 -4 -10z"/>
<path d="M7870 5256 c0 -23 16 -27 17 -5 1 10 -2 19 -8 19 -5 0 -9 -6 -9 -14z"/>
<path d="M167 5213 c-10 -9 -9 -33 1 -33 4 0 8 9 8 20 0 23 0 22 -9 13z"/>
<path d="M7890 5201 c0 -5 5 -13 10 -16 6 -3 10 -2 10 4 0 5 -4 13 -10 16 -5
3 -10 2 -10 -4z"/>
<path d="M145 5141 c-3 -5 -2 -12 3 -15 5 -3 9 1 9 9 0 17 -3 19 -12 6z"/>
<path d="M7913 5119 c-1 -10 2 -19 8 -19 11 0 12 27 1 34 -4 2 -9 -4 -9 -15z"/>
<path d="M121 5044 c0 -11 3 -14 6 -6 3 7 2 16 -1 19 -3 4 -6 -2 -5 -13z"/>
<path d="M7930 5024 c0 -8 5 -12 10 -9 6 3 10 10 10 16 0 5 -4 9 -10 9 -5 0
-10 -7 -10 -16z"/>
<path d="M102 4955 c-1 -14 3 -25 8 -25 5 0 9 9 7 20 -5 30 -12 32 -15 5z"/>
<path d="M7957 4956 c-4 -10 -5 -21 -2 -24 9 -9 17 6 13 25 -3 17 -4 17 -11
-1z"/>
<path d="M7976 4877 c3 -10 9 -15 12 -12 3 3 0 11 -7 18 -10 9 -11 8 -5 -6z"/>
<path d="M81 4866 c-7 -8 -8 -17 -3 -20 6 -3 12 3 15 14 6 24 4 25 -12 6z"/>
<path d="M7970 4834 c0 -8 5 -12 10 -9 6 3 10 10 10 16 0 5 -4 9 -10 9 -5 0
-10 -7 -10 -16z"/>
<path d="M58 4747 c-3 -15 -2 -27 3 -27 13 0 17 14 9 35 -6 17 -7 16 -12 -8z"/>
<path d="M35 4610 c-3 -5 1 -10 10 -10 9 0 13 5 10 10 -3 6 -8 10 -10 10 -2 0
-7 -4 -10 -10z"/>
<path d="M35 4580 c4 -6 11 -8 16 -5 14 9 11 15 -7 15 -8 0 -12 -5 -9 -10z"/>
<path d="M16 4401 c-3 -5 1 -11 9 -14 9 -4 12 -1 8 9 -6 16 -10 17 -17 5z"/>
<path d="M13 4343 c1 -43 10 -49 20 -14 3 11 -1 28 -8 38 -11 15 -13 12 -12
-24z"/>
<path d="M13 3855 c1 -19 7 -35 12 -35 9 0 11 18 6 63 -1 4 -5 7 -11 7 -5 0
-9 -16 -7 -35z"/>
<path d="M13 3790 c5 -29 13 -33 13 -5 0 14 -4 25 -8 25 -4 0 -7 -9 -5 -20z"/>
<path d="M16 3733 c-6 -14 -5 -15 5 -6 7 7 10 15 7 18 -3 3 -9 -2 -12 -12z"/>
<path d="M39 3598 c-4 -14 -3 -71 2 -73 3 -2 6 14 7 36 2 21 0 39 -3 39 -3 0
-5 -1 -6 -2z"/>
<path d="M60 3395 c0 -8 2 -15 4 -15 2 0 6 7 10 15 3 8 1 15 -4 15 -6 0 -10
-7 -10 -15z"/>
<path d="M70 3296 c0 -2 6 -9 13 -15 10 -8 14 -7 14 4 0 8 -6 15 -14 15 -7 0
-13 -2 -13 -4z"/>
<path d="M7976 3291 c-4 -7 -5 -15 -2 -18 9 -9 19 4 14 18 -4 11 -6 11 -12 0z"/>
<path d="M7950 3200 c0 -11 4 -20 8 -20 4 0 8 9 9 20 1 11 -2 20 -8 20 -5 0
-9 -9 -9 -20z"/>
<path d="M100 3184 c0 -8 5 -12 10 -9 6 4 8 11 5 16 -9 14 -15 11 -15 -7z"/>
<path d="M120 3096 c0 -8 4 -17 8 -20 4 -2 8 4 8 15 0 10 -4 19 -8 19 -4 0 -8
-6 -8 -14z"/>
<path d="M7930 3099 c0 -5 5 -7 10 -4 6 3 10 8 10 11 0 2 -4 4 -10 4 -5 0 -10
-5 -10 -11z"/>
<path d="M140 3010 c0 -11 2 -20 4 -20 2 0 6 9 9 20 3 11 1 20 -4 20 -5 0 -9
-9 -9 -20z"/>
<path d="M7910 3020 c0 -5 5 -10 11 -10 5 0 7 5 4 10 -3 6 -8 10 -11 10 -2 0
-4 -4 -4 -10z"/>
<path d="M160 2963 c0 -5 5 -15 10 -23 8 -12 10 -11 10 8 0 12 -4 22 -10 22
-5 0 -10 -3 -10 -7z"/>
<path d="M7890 2960 c0 -5 5 -10 10 -10 6 0 10 5 10 10 0 6 -4 10 -10 10 -5 0
-10 -4 -10 -10z"/>
<path d="M180 2880 c0 -5 5 -10 10 -10 6 0 10 5 10 10 0 6 -4 10 -10 10 -5 0
-10 -4 -10 -10z"/>
<path d="M207 2823 c-4 -3 -7 -11 -7 -17 0 -6 5 -5 12 2 6 6 9 14 7 17 -3 3
-9 2 -12 -2z"/>
<path d="M7850 2821 c0 -6 4 -13 10 -16 6 -3 7 1 4 9 -7 18 -14 21 -14 7z"/>
<path d="M226 2747 c3 -10 9 -15 12 -12 3 3 0 11 -7 18 -10 9 -11 8 -5 -6z"/>
<path d="M7825 2751 c-3 -5 0 -13 6 -17 7 -4 9 -3 5 4 -3 5 0 13 6 15 9 4 10
6 1 6 -6 1 -14 -3 -18 -8z"/>
<path d="M7807 2700 c3 -11 7 -20 9 -20 2 0 4 9 4 20 0 11 -4 20 -9 20 -5 0
-7 -9 -4 -20z"/>
<path d="M246 2687 c3 -10 9 -15 12 -12 3 3 0 11 -7 18 -10 9 -11 8 -5 -6z"/>
<path d="M265 2651 c-3 -5 -1 -12 4 -15 5 -3 11 1 15 9 6 16 -9 21 -19 6z"/>
<path d="M7790 2650 c-9 -6 -10 -10 -3 -10 6 0 15 5 18 10 8 12 4 12 -15 0z"/>
<path d="M287 2589 c7 -7 15 -10 18 -7 3 3 -2 9 -12 12 -14 6 -15 5 -6 -5z"/>
<path d="M310 2541 c0 -25 6 -27 13 -6 4 8 2 17 -3 20 -6 4 -10 -3 -10 -14z"/>
<path d="M7740 2540 c0 -5 5 -10 10 -10 6 0 10 5 10 10 0 6 -4 10 -10 10 -5 0
-10 -4 -10 -10z"/>
<path d="M326 2482 c-3 -5 1 -9 9 -9 8 0 12 4 9 9 -3 4 -7 8 -9 8 -2 0 -6 -4
-9 -8z"/>
<path d="M350 2440 c0 -5 5 -10 10 -10 6 0 10 5 10 10 0 6 -4 10 -10 10 -5 0
-10 -4 -10 -10z"/>
<path d="M7700 2438 c0 -4 4 -8 9 -8 6 0 12 4 15 8 3 5 -1 9 -9 9 -8 0 -15 -4
-15 -9z"/>
<path d="M370 2400 c0 -5 5 -10 10 -10 6 0 10 5 10 10 0 6 -4 10 -10 10 -5 0
-10 -4 -10 -10z"/>
<path d="M7680 2401 c0 -6 5 -13 10 -16 6 -3 10 1 10 9 0 9 -4 16 -10 16 -5 0
-10 -4 -10 -9z"/>
<path d="M390 2348 c0 -19 2 -20 10 -8 13 19 13 30 0 30 -5 0 -10 -10 -10 -22z"/>
<path d="M7665 2361 c-3 -5 -1 -12 5 -16 5 -3 10 1 10 9 0 18 -6 21 -15 7z"/>
<path d="M417 2323 c-4 -3 -7 -11 -7 -17 0 -6 5 -5 12 2 6 6 9 14 7 17 -3 3
-9 2 -12 -2z"/>
<path d="M7635 2320 c-3 -5 -1 -10 5 -10 6 0 8 -5 4 -12 -4 -7 -3 -8 4 -4 14
9 16 36 3 36 -6 0 -13 -4 -16 -10z"/>
<path d="M430 2270 c0 -5 5 -10 10 -10 6 0 10 5 10 10 0 6 -4 10 -10 10 -5 0
-10 -4 -10 -10z"/>
<path d="M7620 2271 c0 -6 4 -12 8 -15 5 -3 9 1 9 9 0 8 -4 15 -9 15 -4 0 -8
-4 -8 -9z"/>
<path d="M450 2230 c0 -5 5 -10 10 -10 6 0 10 5 10 10 0 6 -4 10 -10 10 -5 0
-10 -4 -10 -10z"/>
<path d="M7606 2225 c4 -8 8 -15 10 -15 2 0 4 7 4 15 0 8 -4 15 -10 15 -5 0
-7 -7 -4 -15z"/>
<path d="M470 2190 c0 -5 5 -10 10 -10 6 0 10 5 10 10 0 6 -4 10 -10 10 -5 0
-10 -4 -10 -10z"/>
<path d="M7575 2190 c-3 -5 1 -10 10 -10 9 0 13 5 10 10 -3 6 -8 10 -10 10 -2
0 -7 -4 -10 -10z"/>
<path d="M490 2150 c0 -5 5 -10 11 -10 5 0 7 5 4 10 -3 6 -8 10 -11 10 -2 0
-4 -4 -4 -10z"/>
<path d="M7560 2150 c-9 -6 -10 -10 -3 -10 6 0 15 5 18 10 8 12 4 12 -15 0z"/>
<path d="M516 2111 c-3 -5 1 -11 9 -14 9 -4 12 -1 8 9 -6 16 -10 17 -17 5z"/>
<path d="M7493 2041 c0 -11 5 -17 9 -15 11 7 10 34 -1 34 -6 0 -9 -9 -8 -19z"/>
<path d="M555 2040 c4 -6 11 -8 16 -5 14 9 11 15 -7 15 -8 0 -12 -5 -9 -10z"/>
<path d="M577 1996 c-4 -10 -1 -13 9 -9 7 3 14 9 14 14 0 14 -17 10 -23 -5z"/>
<path d="M7475 2000 c3 -5 8 -10 11 -10 2 0 4 5 4 10 0 6 -5 10 -11 10 -5 0
-7 -4 -4 -10z"/>
<path d="M610 1964 c0 -6 7 -19 15 -30 8 -10 14 -14 14 -9 0 6 -6 19 -14 29
-8 11 -15 15 -15 10z"/>
<path d="M7430 1940 c0 -5 5 -10 10 -10 6 0 10 5 10 10 0 6 -4 10 -10 10 -5 0
-10 -4 -10 -10z"/>
<path d="M640 1900 c0 -5 5 -10 11 -10 5 0 7 5 4 10 -3 6 -8 10 -11 10 -2 0
-4 -4 -4 -10z"/>
<path d="M7407 1896 c-9 -7 -17 -19 -17 -26 0 -9 8 -5 21 9 24 26 22 35 -4 17z"/>
<path d="M686 1841 c-4 -6 -2 -11 3 -11 6 0 11 -6 11 -14 0 -8 4 -17 9 -20 12
-8 9 13 -6 38 -7 12 -13 15 -17 7z"/>
<path d="M7362 1828 c-14 -14 -16 -28 -3 -28 5 0 11 9 14 20 6 23 5 24 -11 8z"/>
<path d="M726 1782 c-6 -11 22 -47 31 -38 4 4 0 12 -10 17 -9 6 -15 14 -12 20
4 5 4 9 1 9 -3 0 -7 -3 -10 -8z"/>
<path d="M7326 1769 c2 -4 -2 -9 -8 -12 -7 -2 -10 -7 -7 -11 3 -3 13 2 22 12
14 15 15 19 2 19 -8 0 -12 -4 -9 -8z"/>
<path d="M783 1692 c15 -10 24 -22 20 -25 -3 -4 -1 -7 5 -7 7 0 12 4 12 9 0
12 -40 41 -55 41 -5 0 2 -8 18 -18z"/>
<path d="M7258 1687 c-11 -9 -14 -18 -7 -28 7 -12 9 -12 9 0 0 8 8 20 18 27 9
7 13 13 7 13 -5 0 -18 -5 -27 -12z"/>
<path d="M830 1633 c0 -5 9 -15 20 -23 11 -8 20 -20 20 -27 0 -7 4 -13 8 -13
18 0 7 26 -20 48 -15 13 -28 20 -28 15z"/>
<path d="M7180 1591 c0 -5 5 -13 10 -16 6 -3 10 -2 10 4 0 5 -4 13 -10 16 -5
3 -10 2 -10 -4z"/>
<path d="M7160 1571 c0 -5 5 -13 10 -16 6 -3 10 -2 10 4 0 5 -4 13 -10 16 -5
3 -10 2 -10 -4z"/>
<path d="M917 1532 c-7 -10 42 -66 50 -58 3 3 -5 15 -18 27 -13 12 -23 25 -21
30 3 11 -5 12 -11 1z"/>
<path d="M7116 1495 c-11 -8 -17 -17 -14 -20 2 -3 13 4 23 15 21 23 18 25 -9
5z"/>
<path d="M976 1465 c-3 -8 -1 -15 4 -15 6 0 10 7 10 15 0 8 -2 15 -4 15 -2 0
-6 -7 -10 -15z"/>
<path d="M7070 1454 c-11 -12 -11 -17 0 -27 10 -9 11 -9 6 0 -3 6 1 16 10 21
10 5 12 12 6 16 -5 3 -15 -1 -22 -10z"/>
<path d="M1055 1360 c-3 -6 -3 -10 2 -10 12 0 59 -43 66 -60 5 -13 6 -13 6 1
1 20 -66 82 -74 69z"/>
<path d="M6960 1320 c-9 -6 -10 -10 -3 -10 6 0 15 5 18 10 8 12 4 12 -15 0z"/>
<path d="M1140 1282 c0 -13 89 -101 94 -93 2 3 -18 28 -45 54 -27 26 -49 44
-49 39z"/>
<path d="M6906 1265 c-11 -8 -15 -15 -9 -15 6 0 16 7 23 15 16 19 11 19 -14 0z"/>
<path d="M6850 1205 c-7 -8 -17 -12 -23 -8 -6 4 -7 1 -3 -6 6 -9 13 -8 27 5
10 9 19 19 19 21 0 7 -8 2 -20 -12z"/>
<path d="M1245 1170 c-3 -5 -1 -10 4 -10 6 0 11 5 11 10 0 6 -2 10 -4 10 -3 0
-8 -4 -11 -10z"/>
<path d="M1265 1150 c-3 -5 0 -10 9 -10 8 0 17 -6 19 -12 4 -8 6 -9 6 -2 1 18
-26 37 -34 24z"/>
<path d="M1317 1113 c-10 -9 -9 -23 1 -23 5 0 9 7 9 15 0 17 -1 18 -10 8z"/>
<path d="M6660 1045 c0 -9 6 -12 15 -9 8 4 15 7 15 9 0 2 -7 5 -15 9 -9 3 -15
0 -15 -9z"/>
<path d="M1416 1032 c-8 -14 21 -48 32 -38 3 4 2 10 -4 14 -6 4 -13 14 -16 22
-3 10 -6 11 -12 2z"/>
<path d="M6640 1025 c0 -8 4 -15 10 -15 5 0 7 7 4 15 -4 8 -8 15 -10 15 -2 0
-4 -7 -4 -15z"/>
<path d="M6621 1013 c-1 -6 -4 -20 -7 -30 -5 -17 -5 -17 6 0 6 10 9 23 6 30
-3 9 -5 9 -5 0z"/>
<path d="M1455 980 c-3 -5 -1 -10 4 -10 6 0 11 5 11 10 0 6 -2 10 -4 10 -3 0
-8 -4 -11 -10z"/>
<path d="M1475 960 c-3 -5 -1 -10 4 -10 6 0 11 5 11 10 0 6 -2 10 -4 10 -3 0
-8 -4 -11 -10z"/>
<path d="M6533 943 c4 -3 -4 -14 -16 -25 -19 -17 -20 -18 -2 -9 11 5 28 16 38
23 17 13 17 14 -4 15 -11 1 -19 -1 -16 -4z"/>
<path d="M1546 911 c10 -10 21 -17 23 -15 6 6 -20 34 -32 34 -6 0 -2 -8 9 -19z"/>
<path d="M1615 860 c-3 -5 1 -10 9 -10 9 0 16 5 16 10 0 6 -4 10 -9 10 -6 0
-13 -4 -16 -10z"/>
<path d="M6430 860 c0 -5 5 -10 10 -10 6 0 10 5 10 10 0 6 -4 10 -10 10 -5 0
-10 -4 -10 -10z"/>
<path d="M1645 841 c-3 -5 -1 -12 5 -16 5 -3 10 1 10 9 0 18 -6 21 -15 7z"/>
<path d="M6414 842 c3 -6 -2 -15 -11 -21 -10 -6 -13 -11 -7 -11 20 0 37 27 23
36 -7 4 -9 3 -5 -4z"/>
<path d="M1700 802 c0 -5 10 -17 21 -28 22 -19 22 -19 10 3 -12 24 -31 39 -31
25z"/>
<path d="M6350 789 c0 -5 -4 -8 -9 -4 -5 3 -12 1 -15 -4 -8 -13 22 -7 36 7 9
9 9 12 0 12 -7 0 -12 -5 -12 -11z"/>
<path d="M1760 756 c0 -9 5 -16 10 -16 6 0 10 4 10 9 0 6 -4 13 -10 16 -5 3
-10 -1 -10 -9z"/>
<path d="M6284 751 c4 -5 0 -11 -6 -14 -7 -2 -10 -7 -7 -11 3 -3 14 3 24 14
17 18 17 20 1 20 -9 0 -15 -4 -12 -9z"/>
<path d="M1826 705 c4 -8 10 -12 15 -9 14 8 10 24 -6 24 -9 0 -12 -6 -9 -15z"/>
<path d="M6225 710 c4 -6 11 -8 16 -5 14 9 11 15 -7 15 -8 0 -12 -5 -9 -10z"/>
<path d="M6205 690 c-3 -5 -1 -10 4 -10 6 0 11 5 11 10 0 6 -2 10 -4 10 -3 0
-8 -4 -11 -10z"/>
<path d="M1890 672 c0 -4 9 -13 20 -20 19 -12 20 -11 8 8 -13 20 -28 27 -28
12z"/>
<path d="M6152 665 c-17 -19 -1 -19 24 0 14 11 15 14 4 14 -8 0 -21 -6 -28
-14z"/>
<path d="M1955 630 c-3 -5 -1 -10 4 -10 6 0 11 5 11 10 0 6 -2 10 -4 10 -3 0
-8 -4 -11 -10z"/>
<path d="M6100 624 c0 -8 5 -12 10 -9 6 4 8 11 5 16 -9 14 -15 11 -15 -7z"/>
<path d="M1990 610 c0 -5 5 -10 10 -10 6 0 10 5 10 10 0 6 -4 10 -10 10 -5 0
-10 -4 -10 -10z"/>
<path d="M6055 610 c-4 -6 3 -10 14 -10 25 0 27 6 6 13 -8 4 -17 2 -20 -3z"/>
<path d="M5990 560 c0 -5 7 -7 15 -4 8 4 15 8 15 10 0 2 -7 4 -15 4 -8 0 -15
-4 -15 -10z"/>
<path d="M2100 539 c0 -5 5 -7 10 -4 6 3 10 8 10 11 0 2 -4 4 -10 4 -5 0 -10
-5 -10 -11z"/>
<path d="M5950 540 c0 -5 7 -7 15 -4 8 4 15 8 15 10 0 2 -7 4 -15 4 -8 0 -15
-4 -15 -10z"/>
<path d="M2146 523 c-6 -14 -5 -15 5 -6 7 7 10 15 7 18 -3 3 -9 -2 -12 -12z"/>
<path d="M5910 525 c0 -8 5 -15 10 -15 6 0 10 7 10 15 0 8 -4 15 -10 15 -5 0
-10 -7 -10 -15z"/>
<path d="M2170 506 c0 -2 7 -6 15 -10 8 -3 15 -1 15 4 0 6 -7 10 -15 10 -8 0
-15 -2 -15 -4z"/>
<path d="M2216 478 c3 -4 9 -8 15 -8 5 0 9 4 9 8 0 5 -7 9 -15 9 -8 0 -12 -4
-9 -9z"/>
<path d="M2260 460 c0 -5 7 -10 16 -10 8 0 12 5 9 10 -3 6 -10 10 -16 10 -5 0
-9 -4 -9 -10z"/>
<path d="M5784 461 c3 -5 15 -7 26 -4 28 7 25 13 -6 13 -14 0 -23 -4 -20 -9z"/>
<path d="M2305 440 c-3 -5 1 -10 10 -10 9 0 13 5 10 10 -3 6 -8 10 -10 10 -2
0 -7 -4 -10 -10z"/>
<path d="M5740 440 c0 -5 5 -10 10 -10 6 0 10 5 10 10 0 6 -4 10 -10 10 -5 0
-10 -4 -10 -10z"/>
<path d="M2350 420 c0 -5 5 -10 10 -10 6 0 10 5 10 10 0 6 -4 10 -10 10 -5 0
-10 -4 -10 -10z"/>
<path d="M5700 420 c0 -5 5 -10 10 -10 6 0 10 5 10 10 0 6 -4 10 -10 10 -5 0
-10 -4 -10 -10z"/>
<path d="M5660 400 c0 -5 5 -10 11 -10 5 0 7 5 4 10 -3 6 -8 10 -11 10 -2 0
-4 -4 -4 -10z"/>
<path d="M2446 381 c-3 -5 1 -11 9 -15 9 -3 15 0 15 9 0 16 -16 20 -24 6z"/>
<path d="M2490 360 c0 -5 5 -10 10 -10 6 0 10 5 10 10 0 6 -4 10 -10 10 -5 0
-10 -4 -10 -10z"/>
<path d="M5555 360 c-3 -5 1 -10 9 -10 9 0 16 5 16 10 0 6 -4 10 -9 10 -6 0
-13 -4 -16 -10z"/>
<path d="M5522 341 c-11 -7 -11 -9 0 -14 9 -3 15 1 15 9 0 8 -1 14 -1 14 -1 0
-7 -4 -14 -9z"/>
<path d="M5455 319 c-9 -14 -2 -20 14 -10 8 6 9 11 3 15 -6 3 -14 1 -17 -5z"/>
<path d="M2598 313 c7 -3 16 -2 19 1 4 3 -2 6 -13 5 -11 0 -14 -3 -6 -6z"/>
<path d="M2660 300 c-8 -5 -12 -11 -9 -14 2 -3 11 -1 19 4 8 5 12 11 9 14 -2
3 -11 1 -19 -4z"/>
<path d="M5415 301 c-3 -5 -2 -12 3 -15 5 -3 9 1 9 9 0 17 -3 19 -12 6z"/>
<path d="M2721 281 c-10 -7 -10 -10 -1 -16 6 -4 16 -3 22 3 13 13 -4 23 -21
13z"/>
<path d="M5350 269 c0 -5 5 -7 10 -4 6 3 10 8 10 11 0 2 -4 4 -10 4 -5 0 -10
-5 -10 -11z"/>
<path d="M2766 252 c-6 -10 30 -9 40 1 4 4 -2 7 -14 7 -11 0 -23 -4 -26 -8z"/>
<path d="M5286 252 c-3 -5 1 -9 9 -9 8 0 12 4 9 9 -3 4 -7 8 -9 8 -2 0 -6 -4
-9 -8z"/>
<path d="M5225 241 c-3 -5 -2 -12 3 -15 5 -3 9 1 9 9 0 17 -3 19 -12 6z"/>
<path d="M2830 232 c0 -4 9 -8 20 -9 11 -1 18 2 15 8 -7 11 -35 12 -35 1z"/>
<path d="M2917 223 c-4 -3 -7 -11 -7 -17 0 -6 5 -5 12 2 6 6 9 14 7 17 -3 3
-9 2 -12 -2z"/>
<path d="M5140 211 c0 -6 9 -9 19 -8 11 0 17 5 15 9 -7 11 -34 10 -34 -1z"/>
<path d="M2976 191 c-3 -5 5 -8 19 -8 14 0 22 3 19 8 -3 5 -11 9 -19 9 -8 0
-16 -4 -19 -9z"/>
<path d="M5076 192 c-3 -4 4 -9 15 -9 23 -2 25 3 4 10 -8 4 -16 3 -19 -1z"/>
<path d="M3055 170 c-3 -6 1 -7 9 -4 18 7 21 14 7 14 -6 0 -13 -4 -16 -10z"/>
<path d="M4998 173 c7 -3 16 -2 19 1 4 3 -2 6 -13 5 -11 0 -14 -3 -6 -6z"/>
<path d="M3141 149 c18 -11 39 -11 39 0 0 5 -12 9 -26 9 -18 0 -22 -3 -13 -9z"/>
<path d="M4890 150 c0 -5 11 -9 25 -8 27 3 25 10 -5 15 -11 2 -20 -2 -20 -7z"/>
<path d="M3226 132 c-2 -4 4 -8 14 -8 10 0 16 4 14 8 -3 4 -9 8 -14 8 -5 0
-11 -4 -14 -8z"/>
<path d="M4810 130 c0 -6 7 -10 15 -10 8 0 15 2 15 4 0 2 -7 6 -15 10 -8 3
-15 1 -15 -4z"/>
<path d="M3355 111 c-18 -7 -17 -8 6 -13 17 -3 26 0 26 9 0 15 -3 15 -32 4z"/>
<path d="M4685 111 c14 -14 32 -17 37 -7 1 5 -8 11 -22 13 -16 2 -21 0 -15 -6z"/>
<path d="M3458 88 c14 -18 44 -18 50 0 5 15 -14 16 -23 2 -5 -8 -12 -7 -23 2
-15 11 -15 11 -4 -4z"/>
<path d="M4560 90 c0 -5 5 -12 10 -15 6 -3 10 -2 10 4 0 6 8 8 18 4 9 -3 14
-3 11 1 -10 11 -49 16 -49 6z"/>
<path d="M3687 68 c-7 -4 -4 -7 8 -7 11 0 37 -2 57 -4 21 -2 43 0 50 5 15 9
12 9 -60 12 -24 0 -49 -2 -55 -6z"/>
<path d="M4264 68 c-3 -5 1 -9 8 -9 48 -5 70 -4 75 4 2 4 11 3 18 -3 9 -8 15
-8 20 0 4 6 3 10 -2 9 -4 -1 -10 -1 -13 0 -17 6 -102 5 -106 -1z"/>
<path d="M3655 60 c3 -5 8 -10 11 -10 2 0 4 5 4 10 0 6 -5 10 -11 10 -5 0 -7
-4 -4 -10z"/>
</g>
</svg>
